<?xml version="1.0" encoding="UTF-8" standalone="no"?>
<!-- Created with Inkscape (http://www.inkscape.org/) -->

<svg
   version="1.1"
   id="svg62"
   width="2699.0684"
   height="2180.814"
   viewBox="0 0 2699.0684 2180.814"
   sodipodi:docname="mono_titile.svg"
   inkscape:version="1.2.2 (b0a84865, 2022-12-01)"
   xmlns:inkscape="http://www.inkscape.org/namespaces/inkscape"
   xmlns:sodipodi="http://sodipodi.sourceforge.net/DTD/sodipodi-0.dtd"
   xmlns="http://www.w3.org/2000/svg"
   xmlns:svg="http://www.w3.org/2000/svg">
  <defs
     id="defs66" />
  <sodipodi:namedview
     id="namedview64"
     pagecolor="#ffffff"
     bordercolor="#000000"
     borderopacity="0.25"
     inkscape:showpageshadow="2"
     inkscape:pageopacity="0.0"
     inkscape:pagecheckerboard="0"
     inkscape:deskcolor="#d1d1d1"
     showgrid="false"
     inkscape:zoom="0.2262978"
     inkscape:cx="1416.2754"
     inkscape:cy="1062.7589"
     inkscape:window-width="1440"
     inkscape:window-height="847"
     inkscape:window-x="0"
     inkscape:window-y="25"
     inkscape:window-maximized="0"
     inkscape:current-layer="g353" />
  <g
     inkscape:groupmode="layer"
     inkscape:label="Image"
     id="g68"
     transform="translate(-367.71912,-300.94345)">
    <g
       id="g353"
       transform="translate(7.5048813,4.5862313)">
      <path
         style="fill:#020202;fill-opacity:1;stroke-width:3.84"
         d="m 476.44994,1728.9179 c -40.9355,-8.7242 -69.462,-27.3347 -89.5579,-58.427 -25.9037,-40.078 -26.6778,-48.3006 -26.6778,-283.3813 0,-237.8772 0.6219,-244.1718 28.187,-285.2921 11.351,-16.9329 22.0844,-27.47 37.093,-36.4144 30.2511,-18.0282 46.4273,-21.7342 94.08,-21.5534 55.1319,0.2093 78.96,8.8055 109.7472,39.5927 32.68,32.6799 45.6833,75.066 45.7438,149.1072 l 0.029,35.52 h -49.92 -49.92 V 1231.37 c 0,-66.7412 -12.6361,-89.8565 -50.795,-92.9194 -16.6608,-1.3374 -22.6244,-0.01 -33.685,7.5003 -25.7861,17.5081 -24.96,9.526 -24.96,241.1587 0,231.6327 -0.8261,223.6506 24.96,241.1587 19.4275,13.1907 49.5394,10.5943 65.8081,-5.6745 15.9409,-15.9409 18.4751,-31.1683 18.5803,-111.6442 l 0.092,-70.08 h -26.88 -26.88 v -48 -48 h 76.8 76.8 l -0.031,116.16 c -0.031,121.4687 -2.4981,150.0995 -16.062,186.3523 -11.3642,30.3735 -43.1351,61.863 -74.1773,73.5203 -25.8772,9.7176 -81.1933,13.8089 -108.376,8.0157 z m 701.68426,-0.1686 c -44.1029,-9.2661 -79.7247,-36.205 -98.8557,-74.7597 -17.5507,-35.37 -18.2643,-45.7971 -18.2643,-266.88 0,-221.0829 0.7136,-231.51 18.2643,-266.88 29.0243,-58.4924 93.8563,-87.169 171.4904,-75.8537 73.4511,10.7056 113.7488,51.4063 127.0901,128.3612 2.8138,16.2302 3.7977,92.4752 2.9646,229.7325 -1.216,200.333 -1.4588,206.0686 -9.767,230.7269 -14.9978,44.5132 -45.8423,76.2922 -87.2411,89.8846 -23.1009,7.5847 -81.6208,10.7234 -105.6813,5.6682 z m 69.12,-98.7657 c 27.4177,-13.6967 26.8681,-8.728 26.8681,-242.874 0,-191.5589 -0.5686,-210.4181 -6.7141,-222.72 -18.0682,-36.1686 -76.5996,-35.6562 -93.1527,0.8155 -7.1052,15.655 -7.4726,26.5653 -7.4726,221.9045 0,195.2826 0.369,206.2534 7.4666,221.8911 11.8287,26.062 44.2082,35.3684 73.0047,20.9829 z m -506.87996,-242.874 v -334.08 h 53.76 53.76 v 286.08 286.08 h 86.4 86.39996 v 48 48 h -140.15996 -140.16 z m 710.39996,0 v -334.6109 l 108.48,1.327 c 103.2985,1.2636 109.5634,1.7588 131.1623,10.3685 29.4746,11.749 52.4095,34.7242 63.9642,64.0767 7.5396,19.153 9.165,31.4408 10.4464,78.9711 0.9002,33.3947 -0.255,64.8268 -2.8404,77.2806 -5.6651,27.2883 -22.5557,53.4993 -44.396,68.8937 l -17.4679,12.3125 16.9175,8.5977 c 28.0388,14.2497 47.7015,42.8296 55.8208,81.1357 5.3012,25.0106 5.5273,134.853 0.3241,157.41 -10.2894,44.6066 -40.7243,81.8902 -79.4868,97.3733 -20.9607,8.3724 -27.9306,8.9066 -132.5243,10.1561 l -110.4,1.3189 v -334.6109 z m 202.9802,228.3485 c 16.4429,-13.8357 21.2147,-39.0893 18.9961,-100.531 -2.8761,-79.6481 -14.3842,-93.2539 -78.8764,-93.2539 h -35.5799 v 101.76 101.76 h 41.9454 c 39.2945,0 42.6765,-0.6152 53.5148,-9.7351 z m -19.6852,-298.7746 c 19.045,-9.9716 25.3159,-25.8287 27.174,-68.7145 2.3051,-53.2009 -1.0598,-70.7746 -16.5095,-86.2243 -12.6232,-12.6232 -12.9677,-12.7115 -49.5755,-12.7115 h -36.864 v 88.8015 88.8016 l 31.68,-1.7263 c 19.2407,-1.0484 36.5548,-4.2786 44.095,-8.2265 z m 204.545,70.4261 0,-54.8436 0,-279.2364 h 144 144 v 48 48 h -90.24 -90.24 v 88.32 88.32 h 71.04 71.04 v 48 48 h -71.04 -71.04 v 101.76 101.76 h 90.24 90.24 v 48 48 h -144 -144 z"
         id="path367"
         sodipodi:nodetypes="cssssssscccsscssscccccccccssccssssssssssssssssscccccccccccccccsssssscssssscccssscccsssssscccsscccccccccccccccccccccccccc" />
      <path
         style="fill:#030606;stroke-width:3.84;fill-opacity:1"
         d="m 463.42059,2472.1956 c -46.9436,-13.5913 -78.3125,-44.9883 -94.5189,-94.6037 -6.2077,-19.0047 -7.0328,-41.4572 -8.2376,-224.1771 -1.394,-211.4202 -0.015,-237.3743 14.6861,-276.6701 10.3443,-27.6476 36.9638,-56.8468 63.0941,-69.2084 65.1552,-30.8233 159.8215,-15.1308 197.6845,32.7696 25.2894,31.9935 31.8564,54.8607 33.8198,117.766 l 1.7079,54.72 h -48.427 -48.427 l -0.01,-43.2 c -0.01,-64.5312 -12.8589,-84.0686 -55.2926,-84.0686 -24.1529,0 -36.4446,5.842 -47.368,22.5132 -6.2695,9.5686 -6.7735,26.4911 -6.7735,227.4665 0,206.9223 0.3426,217.6345 7.2903,227.8852 22.7619,33.5836 84.4383,27.8884 97.133,-8.9693 2.9292,-8.5045 4.6615,-41.3708 4.8,-91.067 l 0.2188,-77.76 h -26.88 -26.88 v -46.08 -46.08 h 74.88 74.88 l -0.057,125.76 c -0.072,159.3105 -3.2173,175.9976 -40.7343,216.1063 -10.4993,11.2247 -26.0221,22.201 -40.8692,28.8989 -20.7847,9.3766 -29.5067,10.9455 -66.1798,11.9039 -26.5797,0.6946 -48.6545,-0.7533 -59.5418,-3.9054 z m 370.5819,-2.6693 c -42.7223,-13.8591 -74.3561,-45.6925 -89.2775,-89.8407 -5.7946,-17.1447 -6.6862,-43.8091 -7.7489,-231.7556 -1.2649,-223.7098 -0.3256,-239.8734 16.0143,-275.5643 27.0458,-59.0759 92.4525,-89.3358 169.9815,-78.6407 65.0588,8.9748 106.49051,45.0904 122.23621,106.552 5.2327,20.4253 5.9004,53.6144 4.9422,245.6653 -1.103,221.0947 -1.1455,222.1429 -9.8759,243.7344 -16.2971,40.3055 -51.24191,70.9276 -93.89821,82.283 -29.4933,7.8513 -84.3305,6.6639 -112.3737,-2.4334 z m 87.9084,-90.0765 c 6.7479,-3.2021 15.6491,-11.4101 19.7803,-18.24 7.2135,-11.9256 7.5113,-20.7915 7.5113,-223.6179 0,-230.0182 0.1156,-228.719 -21.7037,-244.2556 -14.6656,-10.4429 -47.4796,-11.0637 -64.154,-1.2139 -23.9772,14.1637 -23.5823,10.0686 -23.5823,244.522 v 212.9317 l 8.7553,12.992 c 4.8153,7.1455 13.0233,15.1516 18.24,17.7912 12.9943,6.5752 40.3302,6.1245 55.1531,-0.9095 z m 308.55591,94.0129 c -51.9417,-12.9615 -90.3441,-54.4567 -102.2267,-110.4598 -2.9634,-13.9666 -4.3176,-105.2006 -4.3176,-290.88 v -270.531 h 49.92 49.92 l 0.023,256.32 c 0.012,148.4477 1.6003,265.9566 3.7718,279.218 5.3139,32.4507 18.507,45.1882 48.8215,47.1354 17.5965,1.1302 24.9295,-0.2419 34.9756,-6.5457 24.4315,-15.3306 23.7681,-6.8106 23.7681,-305.2844 v -270.8433 h 50.0843 50.0843 l -1.218,279.36 -1.218,279.36 -8.998,24.2937 c -4.9489,13.3616 -14.4682,31.5056 -21.1541,40.32 -13.9016,18.3277 -42.3804,38.7337 -63.0596,45.1842 -18.4162,5.7446 -90.6965,7.9644 -109.1766,3.3529 z m 281.2957,-337.7908 v -334.08 h 95.1932 c 104.5643,0 126.9776,3.1534 157.8729,22.2114 39.7967,24.5488 54.206,58.7918 56.9035,135.2286 3.0171,85.491 -11.5265,131.0032 -49.697,155.52 -9.8646,6.336 -18.0045,12.384 -18.0888,13.44 -0.084,1.056 8.3532,6.6108 18.75,12.344 12.6725,6.9882 22.1829,16.0207 28.854,27.4039 17.2163,29.3775 21.112,59.8686 21.1855,165.8152 0.048,68.4444 1.5712,101.9231 5.2914,116.2649 l 5.2247,20.1417 -51.9935,-1.0648 -51.9935,-1.0649 -3.3798,-11.52 c -1.8589,-6.336 -4.573,-62.8022 -6.0312,-125.4805 -2.4879,-106.9343 -3.1417,-114.6287 -10.6043,-124.8 -12.9326,-17.6265 -30.4535,-24.2668 -64.0471,-24.2735 l -29.76,-0.01 v 144 144 h -51.84 -51.84 z m 179.8217,-55.2594 c 21.7694,-11.394 27.3919,-30.1088 27.2372,-90.6606 -0.1532,-59.9787 -3.9681,-74.8698 -22.3468,-87.227 -11.1456,-7.494 -18.0036,-8.773 -47.04,-8.773 h -33.9921 v 98.4015 98.4016 l 31.68,-1.7263 c 19.6541,-1.0709 36.532,-4.2658 44.4617,-8.4162 z m 208.0183,55.1765 v -334.1629 l 73.6979,1.0429 73.6979,1.0429 33.0949,237.0328 c 18.2022,130.368 34.0786,238.0165 35.2809,239.2188 3.4479,3.4479 4.3915,-2.6491 38.1969,-246.8116 l 32.0329,-231.36 h 73.9593 73.9593 v 334.08 334.08 h -48 -48 v -256.128 c 0,-147.6341 -1.4311,-254.5827 -3.3785,-252.48 -1.8583,2.0064 -20.4343,117.2636 -41.28,256.127 l -37.9015,252.4791 -43.2,9e-4 c -30.1575,7e-4 -43.2,-1.3408 -43.2,-4.4435 0,-12.5751 -73.7541,-493.9673 -76.684,-500.5155 -2.0671,-4.6201 -3.5397,94.4433 -3.6961,248.64 l -0.2599,256.32 h -44.16 -44.16 z m 514.56,0.083 v -334.08 h 142.08 142.08 v 46.08 46.08 h -90.24 -90.24 v 90.24 90.24 h 72.96 72.96 v 46.08 46.08 h -72.96 -72.96 v 105.6 105.6 h 90.24 90.24 v 46.08 46.08 h -142.08 -142.08 z m 430.08,46.08 v -288 h -53.76 -53.76 v -46.08 -46.08 h 161.28 161.28 v 46.08 46.08 h -55.68 -55.68 v 288 288 h -51.84 -51.84 z M 490.32249,981.1373 c -7.392,-0.9031 -24.6583,-5.3024 -38.3696,-9.7761 -32.8499,-10.7184 -63.993,-40.65968 -76.1846,-73.24469 -15.154,-40.50271 -16.5034,-65.24333 -15.1511,-277.78748 1.2563,-197.44512 1.5259,-203.74695 9.7553,-228.01713 21.9526,-64.74295 69.8356,-95.84854 147.7094,-95.95442 45.0178,-0.0612 77.4348,10.51766 103.1916,33.67519 37.023,33.28692 49.3783,69.21953 49.4722,143.87923 l 0.057,45.11999 h -47.6144 -47.6143 l -1.395,-48.95999 c -1.5304,-53.70993 -5.5276,-65.12083 -26.6358,-76.03626 -15.3678,-7.94704 -45.1427,-7.0459 -59.6587,1.80553 -24.6942,15.05775 -24.8487,16.69374 -23.6223,250.08391 1.2051,229.35979 0.3317,220.73968 23.9386,236.20762 13.4732,8.82797 50.5175,8.13704 63.2388,-1.17949 21.1177,-15.4656 23.3507,-26.2954 23.3572,-113.28131 l 0.01,-79.68 h -26.8801 -26.88 v -46.08 -46.08001 h 75.1016 75.1016 l -1.2254,137.28001 c -1.1753,131.66899 -1.5761,138.15076 -9.8071,158.58374 -22.9436,56.95686 -63.9363,84.82626 -131.4907,89.39546 -13.728,0.9285 -31.008,0.9493 -38.4,0.046 z m 371.2815,-1.4954 c -65.4071,-10.0619 -109.5819,-53.5594 -121.8631,-119.99444 -2.5202,-13.63284 -3.5279,-98.86225 -2.7648,-233.83365 1.3267,-234.62595 0.9706,-231.01033 26.5509,-269.62947 16.2917,-24.59601 41.6659,-42.73183 73.7011,-52.67668 22.0129,-6.83355 32.9968,-7.87645 67.8369,-6.44098 37.1468,1.53051 44.2356,3.02443 66.6041,14.03642 30.54711,15.03828 56.21961,42.29455 68.52701,72.75454 l 8.8464,21.89426 v 230.4 c 0,256.55601 0.648,249.55308 -26.644,287.9399 -31.77901,44.6978 -93.26301,65.9388 -160.79451,55.5501 z m 63.5335,-98.34344 c 5.7722,-2.90212 13.5482,-10.86332 17.28,-17.69157 6.256,-11.44712 6.785,-29.03002 6.785,-225.53499 0,-204.73198 -0.2957,-213.60876 -7.5113,-225.53795 -9.3223,-15.41203 -26.9236,-24.07941 -48.749,-24.00545 -21.2167,0.0718 -33.3947,6.28017 -44.4244,22.64721 l -8.7553,12.99195 v 212.93176 c 0,181.29949 0.8555,214.73468 5.7589,225.06774 12.4484,26.23307 48.3378,34.8571 79.6161,19.1313 z M 1127.7625,637.97452 V 303.25528 l 102.72,1.67471 c 95.4324,1.55589 104.4801,2.30749 127.5284,10.59383 32.2432,11.5921 57.0718,35.74555 69.2995,67.41506 6.9115,17.90082 9.202,33.0957 10.6375,70.56726 3.1912,83.30699 -11.2229,127.21416 -49.593,151.06632 l -19.2058,11.93899 14.6667,7.36393 c 48.5374,24.36983 66.3733,67.91251 66.3733,162.03652 0,56.76968 -6.6091,94.85303 -20.606,118.73699 -13.8199,23.58178 -40.0927,46.01071 -65.9724,56.32021 -21.6072,8.6075 -27.9842,9.1199 -129.2882,10.3894 l -106.56,1.3353 z m 192,235.29143 c 22.8653,-11.4225 26.8672,-25.06019 26.874,-91.58105 0.012,-95.35203 -9.9468,-109.07005 -80.0676,-110.31517 l -37.0464,-0.65783 -1.0217,104.64 -1.0217,104.64 39.4217,-0.008 c 29.8374,-0.004 42.6893,-1.6383 52.8617,-6.72 z M 1307.979,569.90594 c 22.6176,-11.52476 28.8174,-29.59484 28.619,-83.41421 -0.2811,-76.22003 -9.9981,-88.41983 -70.426,-88.41983 h -36.6495 l -1.0308,89.27999 -1.0307,89.28 33.6707,-0.008 c 24.4626,-0.004 37.2743,-1.84212 46.8473,-6.72 z m 207.6235,68.02868 V 303.17544 l 102.72,1.75983 c 85.9941,1.47328 105.8463,2.8813 121.92,8.64712 65.7302,23.57824 89.2213,70.36587 85.4539,170.19991 -2.5825,68.43514 -16.6796,101.80167 -51.675,122.31038 l -16.6801,9.77523 20.0934,12.06197 c 24.4156,14.65659 43.0691,38.26848 51.375,65.03148 8.2511,26.58647 11.7148,118.41416 5.8772,155.81391 -8.5817,54.97986 -37.7467,94.00965 -84.0701,112.50583 -20.5872,8.2201 -28.256,8.8218 -128.4543,10.0774 l -106.56,1.3353 z m 198.4529,232.09763 c 16.277,-12.08652 19.9718,-28.18399 20.1889,-87.96035 0.346,-95.2014 -9.9377,-109.461 -79.8354,-110.70217 l -37.0464,-0.65783 -1.0223,104.97197 -1.0223,104.97197 43.9552,-1.29197 c 37.3503,-1.09782 45.5821,-2.50003 54.7823,-9.33162 z m -18.2097,-300.41708 c 22.462,-12.04642 27.1168,-26.17862 27.1168,-82.32672 0,-78.23492 -7.5349,-88.01386 -69.7421,-90.51243 l -37.7779,-1.51734 v 90.68658 90.68663 h 33.6599 c 25.2659,0 36.9226,-1.74981 46.7433,-7.01672 z m 207.5968,68.45673 v -334.08 h 49.92 49.92 V 591.99189 879.9919 h 86.4 86.4 v 46.08 46.08 h -136.32 -136.32 z m 330.24,0 v -334.08 h 142.08 142.08 v 46.08 46.08 h -92.16 -92.16 v 90.23999 90.24 h 72.96 72.96 v 45.99526 45.99529 l -72,1.04471 -72,1.04475 -1.0217,104.64 -1.0217,104.64 h 92.2217 92.2217 v 46.08 46.08 h -142.08 -142.08 z"
         id="path355" />
    </g>
  </g>
</svg>
