<?xml version="1.0" encoding="UTF-8" standalone="no"?>
<!-- Created with Inkscape (http://www.inkscape.org/) -->

<svg
   version="1.1"
   id="svg65"
   width="934.2049"
   height="685.66589"
   viewBox="0 0 934.2049 685.66589"
   sodipodi:docname="white_costomise.svg"
   xml:space="preserve"
   inkscape:version="1.2.2 (b0a84865, 2022-12-01)"
   xmlns:inkscape="http://www.inkscape.org/namespaces/inkscape"
   xmlns:sodipodi="http://sodipodi.sourceforge.net/DTD/sodipodi-0.dtd"
   xmlns="http://www.w3.org/2000/svg"
   xmlns:svg="http://www.w3.org/2000/svg"><defs
     id="defs69"><inkscape:path-effect
       effect="skeletal"
       id="path-effect22068"
       is_visible="true"
       lpeversion="1"
       pattern="m -466.65814,10.263295 c -4.23272,-0.8952799 -8.11233,-3.2887799 -10.57858,-6.5263899 -4.09016,-5.3694097 -4.21489,-6.5316597 -4.21489,-39.2749031 0,-27.855561 0.077,-29.781392 1.33363,-33.356745 1.78657,-5.083108 4.36584,-8.112011 8.89054,-10.440384 3.40839,-1.753928 4.38024,-1.934782 10.39686,-1.934782 5.9911,0 7.01372,0.188292 10.50792,1.934782 7.4656,3.731505 10.20438,9.651121 10.20438,22.055783 v 7.545666 h -6.66666 -6.66667 l -10e-4,-6.5 c -0.001,-8.184279 -1.10364,-10.863174 -4.85095,-11.7888 -3.17544,-0.784368 -5.56568,0.02302 -7.41325,2.504093 -1.37158,1.841912 -1.4014,2.473199 -1.4014,29.666667 0,29.8927824 0.13705,31.2070834 3.40976,32.6982234 2.08938,0.95199 5.27852,0.96689 7.02384,0.0328 2.41392,-1.29187 3.23307,-4.651041 3.23307,-13.2582414 v -8.02141 h 6.72402 6.72403 l -0.23169,10.83333 c -0.20715,9.6862514 -0.39013,11.1313814 -1.72812,13.64814136 -2.32454,4.37247974 -5.17708,7.22047974 -8.78771,8.77372974 -3.80045,1.6349099 -11.57983,2.3237099 -15.90707,1.4084399 z m 49.8085,0.0328 c -6.1097,-1.1098999 -11.21468,-5.2811099 -13.5983,-11.11099964 -1.26643,-3.09746996 -1.33898,-5.06695096 -1.52576,-41.41877336 l -0.1961,-38.166666 h 7.02576 7.02576 l 0.004,35.166666 c 0.002,22.045682 0.25964,36.0881224 0.68963,37.6363424 2.06805,7.44614096 11.86144,6.84238096 13.34021,-0.82243 0.31627,-1.6393204 0.58811,-18.5055794 0.60408,-37.4805794 l 0.0288,-34.499999 h 6.66666 6.66667 v 37.349986 c 0,35.6438024 -0.0609,37.5233224 -1.33363,41.1444134 -2.75992,7.8524497 -8.39456,11.8999297 -17.33304,12.4506896 -2.75,0.16945 -6.37911,0.0575 -8.06469,-0.24865 z m 49.31248,-0.003 c -9.9907,-1.8122999 -15.22281,-10.00233964 -15.24275,-23.860111 l -0.005,-3.5 h 6.93159 6.93159 l 0.23509,5.7244 c 0.21797,5.3076504 0.37126,5.8415404 2.10558,7.3333414 2.10393,1.80972 5.72667,2.1296 8.46282,0.74725 3.61445,-1.826081 4.24375,-10.1256514 1.23856,-16.3346614 -0.98905,-2.04347 -4.78481,-6.390489 -10.88889,-12.470329 -7.64102,-7.610656 -9.79931,-10.19467 -11.69346,-13.999996 -2.2943,-4.609234 -2.32288,-4.773327 -2.32288,-13.333333 0,-8.460728 0.0491,-8.753795 2.06818,-12.333333 2.39253,-4.241694 6.44897,-7.630652 10.45985,-8.738696 1.54291,-0.426245 5.42765,-0.770915 8.63274,-0.765934 4.9591,0.0077 6.37264,0.275806 9.48639,1.799219 2.01243,0.984589 4.57397,2.896093 5.69232,4.247786 2.70557,3.270108 4.66052,9.783556 4.66052,15.527851 v 4.59644 h -6.66667 -6.66666 v -3.354747 c 0,-5.971366 -2.72419,-9.978586 -6.78364,-9.978586 -6.71223,0 -9.17024,7.430154 -5.2052,15.734386 1.0654,2.231333 4.25672,5.904933 10.07621,11.598947 12.79341,12.517576 15.44544,17.431055 15.47273,28.666665 0.0347,14.2841614 -6.4664,22.1793811 -18.89344,22.945091 -2.75,0.16945 -6.3885,0.0562 -8.08555,-0.25163 z m 95.64805,-0.0544 c -6.34839,-1.2562999 -11.65283,-5.7006399 -13.96825,-11.7036396 -1.17183,-3.0381 -1.26091,-5.459301 -1.26091,-34.2690634 0,-30.258294 0.0341,-31.07373 1.42488,-34.081603 2.05885,-4.452684 5.739,-8.203687 9.74735,-9.935012 5.19396,-2.243427 14.82892,-2.176958 19.88364,0.137172 4.39822,2.013573 7.41325,4.917726 9.42886,9.082129 1.51138,3.122625 1.51526,3.212654 1.51526,35.130647 v 32.0000004 l -1.53831,3.18275996 c -1.79747,3.71894974 -5.18881,7.31136974 -8.27779,8.76856974 -4.50428,2.1248799 -11.31724,2.8030599 -16.95473,1.6877199 z m 9.99821,-14.0081496 c 3.014,-2.370811 3.19696,-4.403511 2.97754,-33.0828734 -0.19901,-26.013448 -0.2453,-26.839514 -1.60635,-28.666663 -0.77079,-1.03475 -2.18739,-2.161323 -3.14801,-2.503497 -2.56885,-0.915028 -6.3986,0.275414 -8.05334,2.503308 -1.35292,1.821536 -1.40378,2.698626 -1.60426,27.666665 -0.11386,14.182019 -0.0132,27.109269 0.22378,28.7272094 0.8648,5.905221 6.86685,8.77268096 11.21064,5.355851 z m 132.56609,14.0330696 c -6.63971,-1.4043899 -11.81861,-6.2215299 -13.77637,-12.8140596 -0.5594,-1.88402 -1.0171,-5.920791 -1.0171,-8.9709014 v -5.54567 h 6.66667 6.66667 v 4.39925 c 0,7.2409304 2.28424,10.2674214 7.74932,10.2674214 1.71206,0 2.8842,-0.53096 4.30196,-1.94872 1.80294,-1.802941 1.94762,-2.314121 1.93408,-6.8333314 -0.0217,-7.25627 -1.19037,-9.21609 -12.20532,-20.468859 -5.24867,-5.362003 -10.33076,-11.09909 -11.29354,-12.74909 -4.58832,-7.863426 -5.01691,-19.956147 -0.98056,-27.666666 1.32845,-2.53772 4.8369,-5.852589 7.74903,-7.321482 5.68248,-2.866274 17.01234,-2.54322 22.03641,0.628334 5.67166,3.58036 8.25342,8.843977 9.08708,18.526481 l 0.44486,5.166667 h -7.00546 -7.00546 l -0.2522,-4.99414 c -0.3234,-6.404197 -1.63584,-8.00586 -6.5602,-8.00586 -5.08134,0 -6.33334,1.618425 -6.33334,8.1869 0,6.81372 1.26428,8.88322 11.69674,19.146433 13.14745,12.934163 14.86775,16.238582 14.92403,28.666662 0.0316,6.9705404 -0.16148,8.4381614 -1.50013,11.40494136 -1.88935,4.18721974 -5.45361,7.75449974 -9.55722,9.56529974 -3.58812,1.5833399 -11.49169,2.2649799 -15.76995,1.3600699 z m -192.1268,-38.99729 v -38.333336 h -7.33333 -7.33333 v -6.675776 -6.675776 l 21.83333,0.175776 21.83333,0.175776 v 6.333334 6.333333 l -7.5,0.1885 -7.5,0.188501 v 38.311498 38.3115001 h -7 -7 z m 86,-6.66667 v -44.999999 h 10.33333 c 7.8239,0 10.33258,0.202374 10.3302,0.833333 -0.003,0.777346 1.11364,8.763808 6.04152,43.213046 1.07889,7.54218 1.96162,14.517179 1.96162,15.499999 0,3.79157 1.15486,1.53097 1.89687,-3.71305 0.42802,-3.024999 1.67652,-11.949995 2.77445,-19.833329 1.09792,-7.883333 2.67223,-19.133333 3.49847,-24.999999 l 1.50225,-10.666667 10.16398,-0.18403 10.16398,-0.184031 v 45.01736 45.0173671 h -6.66667 -6.66667 l -0.0601,-32.1666711 c -0.0355,-18.955449 -0.29346,-31.345242 -0.62825,-30.166662 -0.31246,1.1 -1.03688,5.15 -1.60982,9 -0.57292,3.85 -2.09362,13.900003 -3.37932,22.333332 -1.28571,8.43333 -2.79507,18.4833314 -3.35415,22.33333136 -0.55907,3.84999974 -1.14625,7.37499974 -1.30483,7.83333974 -0.337,0.97403 -12.33016,1.21341 -12.33016,0.2461 0,-0.32297 -0.60883,-4.59797 -1.35296,-9.49999974 -0.74412,-4.90202096 -1.63529,-10.86277136 -1.98038,-13.24610136 -0.34508,-2.38334 -1.22976,-8.30109 -1.96594,-13.150559 -0.73618,-4.84948 -1.8123,-12.049476 -2.39137,-16.000003 -0.57907,-3.950527 -1.30851,-8.082773 -1.62098,-9.182773 -0.33501,-1.179373 -0.59279,11.06164 -0.62825,29.833335 l -0.0601,31.8333311 h -6.33334 -6.33333 z m 68.82864,0.166667 0.17136,-44.833333 7.16667,-0.189221 7.16666,-0.189221 v 45.022555 45.0225531 h -7.33802 -7.33803 z m 72.504694,-0.166667 v -44.999999 h 19.33334 19.33333 v 6.666667 6.666666 h -12.33333 -12.33334 v 11.666667 11.666666 h 9.66667 9.66667 v 6.666667 6.666666 h -9.66667 -9.66667 v 13.318289 13.3183014 l 12.16667,0.1817 12.16667,0.18171 0.1908,6.4999997 0.19081,6.5 h -19.35747 -19.35748 z"
       copytype="single_stretched"
       prop_scale="0.56469967"
       scale_y_rel="false"
       spacing="0"
       normal_offset="0"
       tang_offset="0"
       prop_units="false"
       vertical_pattern="false"
       hide_knot="false"
       fuse_tolerance="0" /><inkscape:path-effect
       effect="bspline"
       id="path-effect22047"
       is_visible="true"
       lpeversion="1"
       weight="33.333333"
       steps="2"
       helper_size="0"
       apply_no_weight="true"
       apply_with_weight="true"
       only_selected="false" /><inkscape:path-effect
       effect="bspline"
       id="path-effect22047-8"
       is_visible="true"
       lpeversion="1"
       weight="33.333333"
       steps="2"
       helper_size="0"
       apply_no_weight="true"
       apply_with_weight="true"
       only_selected="false" /><inkscape:path-effect
       effect="skeletal"
       id="path-effect22068-7"
       is_visible="true"
       lpeversion="1"
       pattern="m -429.00197,123.3835 c -6.3484,-1.25598 -11.65284,-5.70032 -13.96826,-11.70332 -1.17182,-3.0381 -1.26091,-5.4593 -1.26091,-34.269064 0,-30.258294 0.0341,-31.07373 1.42489,-34.081603 2.05885,-4.452684 5.739,-8.203687 9.74735,-9.935012 2.82179,-1.218815 4.71352,-1.508312 9.82776,-1.503967 9.68235,0.0082 14.98029,2.755346 18.76268,9.728952 l 2.23732,4.124964 v 32 32 l -1.53831,3.18276 c -1.79747,3.71895 -5.18882,7.31137 -8.27779,8.76857 -4.50428,2.12488 -11.31724,2.80306 -16.95473,1.68772 z m 9.99821,-14.00815 c 3.014,-2.37081 3.19695,-4.40351 2.97754,-33.082874 -0.19901,-26.013448 -0.24531,-26.839514 -1.60635,-28.666663 -0.77079,-1.03475 -2.1874,-2.161323 -3.14802,-2.503497 -2.56884,-0.915028 -6.3986,0.275414 -8.05333,2.503308 -1.35293,1.821536 -1.40379,2.698626 -1.60426,27.666666 -0.11387,14.18202 -0.0132,27.10927 0.22377,28.72721 0.8648,5.90522 6.86686,8.77268 11.21065,5.35585 z m 41.33512,14.05021 c -8.31055,-1.77032 -13.35281,-7.4585 -14.86327,-16.76726 -0.41093,-2.53251 -0.69119,-18.31015 -0.6942,-39.080517 l -0.005,-34.833333 h 7.33333 7.33334 l 10e-4,36.166666 c 6.7e-4,33.102444 0.0998,36.363104 1.16667,38.485234 1.34837,2.68205 4.08922,3.76095 7.79045,3.0666 4.85195,-0.91023 4.6857,0.47692 4.89673,-40.85512 l 0.18791,-36.86338 h 7.00944 7.00944 l -0.21777,37.5 c -0.1933,33.28377 -0.34634,37.88257 -1.36124,40.90263 -1.52058,4.52486 -5.59564,9.05146 -9.76216,10.84385 -3.7906,1.63067 -11.58682,2.33745 -15.82497,1.43463 z m 219.03947,0.0189 c -6.30754,-1.15309 -11.36826,-5.4104 -13.60534,-11.44542 -1.25836,-3.39475 -1.32996,-5.25752 -1.32996,-34.602287 V 46.382334 l 2.16232,-4.391932 c 3.46238,-7.032489 8.89264,-10.051568 18.17101,-10.102592 6.53271,-0.03593 9.8183,0.754054 13.36836,3.214248 5.60672,3.885459 7.96497,9.806728 7.96497,19.999023 v 6.976702 h -6.60231 -6.60231 l -0.23102,-6.286044 c -0.2544,-6.921956 -1.3928,-9.46273 -4.78047,-10.669423 -2.56877,-0.915001 -6.39859,0.275417 -8.05333,2.503213 -1.35087,1.818677 -1.40431,2.714375 -1.6108,27.000001 -0.11747,13.815406 -0.0145,26.74496 0.22881,28.73235 0.75614,6.17618 5.31522,9.02994 10.58794,6.62753 3.13359,-1.42776 3.78521,-4.16535 3.58147,-15.046274 l -0.18464,-9.861353 -3.5,-0.201507 -3.5,-0.201506 v -6.298494 -6.298493 h 10.33333 10.33333 v 17.68332 c 0,15.975677 -0.12878,18.049747 -1.33363,21.477747 -2.76646,7.87109 -8.44476,11.95788 -17.33303,12.47495 -2.75,0.15998 -6.37912,0.0387 -8.0647,-0.26938 z m -319.93607,-19.19998 -7.8e-4,-18.5 -8.66512,-26.333334 c -4.76582,-14.483333 -8.66547,-26.408333 -8.6659,-26.5 -4.2e-4,-0.09167 3.42597,-0.166666 7.6142,-0.166666 h 7.61496 l 0.68999,2.166666 c 0.37949,1.191667 2.37305,8.004578 4.43014,15.139802 2.05709,7.135224 3.96211,13.369737 4.23338,13.854472 0.28756,0.513838 2.38144,-5.59064 5.02156,-14.639802 2.49059,-8.536626 4.74938,-15.757174 5.01953,-16.045662 0.27015,-0.288488 3.48508,-0.438488 7.14428,-0.333333 l 6.6531,0.19119 -8.50188,25.666667 -8.50189,25.666666 -0.0424,19.166664 -0.0424,19.16667 h -7 -7 z m 137.3341,-26.5 v -45 h 11.87756 c 19.41462,0 24.02411,1.569967 28.35613,9.657929 1.3002,2.427501 1.43298,3.694664 1.43298,13.675404 0,10.41778 -0.0882,11.1729 -1.66667,14.266673 -0.9979,1.955887 -2.70129,3.951687 -4.24513,4.973847 -1.61258,1.06768 -2.2369,1.815007 -1.66666,1.995047 2.08296,0.657646 4.68866,3.03356 5.87303,5.35512 1.84731,3.621026 2.70543,11.327113 2.70543,24.29529 0,6.30088 0.28182,12.43884 0.62628,13.63988 l 0.62628,2.18372 -7.43073,-0.18812 c -7.28979,-0.18456 -7.4395,-0.21974 -7.89316,-1.85479 -0.25434,-0.91667 -0.49234,-7.9013 -0.52889,-15.52141 -0.0888,-18.504417 -0.75881,-20.013957 -9.27912,-20.904504 l -4.12066,-0.430693 v 19.428297 19.42831 h -7.33334 -7.33333 z m 23.28739,-7.392734 c 3.83901,-1.536066 4.95872,-4.806557 4.59108,-13.409719 -0.39686,-9.286673 -1.73902,-10.864214 -9.24317,-10.864214 h -3.96863 V 58.74445 71.411116 h 2.9865 c 1.64258,0 4.17798,-0.476733 5.63422,-1.0594 z m 48.87458,7.5594 0.17136,-44.833333 13.66667,0.0041 c 13.32117,0.0039 13.75936,0.04779 17.33333,1.734253 4.44149,2.095821 7.04532,4.605892 8.91609,8.595029 1.28385,2.737637 1.40735,4.166055 1.41207,16.333333 l 0.005,13.333333 -1.98292,3.580167 c -3.63988,6.571813 -8.05945,8.871127 -17.85042,9.286827 l -7.16666,0.304273 v 18.247702 18.2477 h -7.33803 -7.33803 l 0.17136,-44.833335 z m 25.73868,-6.762526 c 1.67449,-1.672814 1.77773,-2.16502 1.992,-9.496824 0.27165,-9.295151 -0.14327,-11.88521 -2.23986,-13.981802 -1.37715,-1.377148 -2.22654,-1.592181 -6.28916,-1.592181 h -4.69696 V 59.834028 73.59027 l 4.73398,-0.338714 c 3.97756,-0.284593 5.01617,-0.62062 6.5,-2.102966 z m 15.7395,50.09586 c 0.18272,-0.825 1.07714,-6.15 1.98761,-11.83333 2.50752,-15.65255 5.40851,-33.513437 9.06691,-55.823548 1.81794,-11.086284 3.30533,-20.311284 3.30533,-20.5 0,-0.188718 4.34429,-0.343122 9.65397,-0.343122 9.46498,0 9.6607,0.02936 9.99852,1.5 0.18951,0.825 1.40778,8.1 2.70726,16.166666 2.89117,17.9472 8.53052,52.507244 10.32087,63.250224 0.72566,4.35428 1.31938,8.17928 1.31938,8.5 0,0.32071 -3.24262,0.58311 -7.20582,0.58311 h -7.20583 l -0.84295,-6.16667 c -0.46363,-3.39166 -1.00935,-7.29166 -1.21271,-8.66666 l -0.36977,-2.5 h -7.83503 -7.83504 l -1.15485,7.83333 c -0.63517,4.30833 -1.26165,8.20833 -1.39217,8.66667 -0.16963,0.59564 -2.14839,0.83333 -6.93761,0.83333 -6.60244,0 -6.69544,-0.0219 -6.36807,-1.5 z m 29.51636,-30.333334 c -0.18893,-1.008333 -1.47469,-10.083333 -2.85726,-20.166666 -1.38256,-10.083334 -2.71567,-18.568514 -2.96246,-18.855958 -0.24679,-0.287444 -0.81422,2.112556 -1.26096,5.333333 -0.44674,3.220777 -1.26583,9.155958 -1.8202,13.189291 -0.55437,4.033334 -1.43868,10.219134 -1.96512,13.74622 -1.40632,9.422074 -1.90476,8.587114 5.12616,8.587114 h 6.08333 z m 75.00546,-13 0.17136,-44.833333 19.52426,-0.176775 19.52427,-0.176775 -0.190933,6.510109 -0.190927,6.510108 -12.166667,0.181706 -12.166663,0.181705 v 11.651628 11.651627 h 9.666663 9.666667 v 6.666667 6.666667 h -9.666667 -9.666663 v 13.318293 13.318297 l 12.166663,0.1817 12.166667,0.18171 0.190807,6.5 0.190806,6.5 h -19.695503 -19.6955 z"
       copytype="single_stretched"
       prop_scale="0.52919054"
       scale_y_rel="false"
       spacing="0"
       normal_offset="0"
       tang_offset="0"
       prop_units="false"
       vertical_pattern="false"
       hide_knot="false"
       fuse_tolerance="0" /></defs><sodipodi:namedview
     id="namedview67"
     pagecolor="#ffffff"
     bordercolor="#000000"
     borderopacity="0.25"
     inkscape:showpageshadow="2"
     inkscape:pageopacity="0.0"
     inkscape:pagecheckerboard="0"
     inkscape:deskcolor="#d1d1d1"
     showgrid="false"
     inkscape:zoom="0.55636803"
     inkscape:cx="508.65611"
     inkscape:cy="442.15337"
     inkscape:window-width="1440"
     inkscape:window-height="900"
     inkscape:window-x="0"
     inkscape:window-y="0"
     inkscape:window-maximized="0"
     inkscape:current-layer="g71" /><g
     inkscape:groupmode="layer"
     inkscape:label="Image"
     id="g71"
     transform="translate(1356.9262,615.85766)"><text
       xml:space="preserve"
       style="font-size:53.3333px;font-family:Baskerville;-inkscape-font-specification:'Baskerville, Normal';opacity:1;fill:#1b3d3d;fill-opacity:1;fill-rule:evenodd;stroke-width:3779.53;stroke-opacity:0"
       x="171.1031"
       y="74.489204"
       id="text17921"><tspan
         sodipodi:role="line"
         id="tspan17919"
         x="171.1031"
         y="74.489204" /></text><path
       style="opacity:1;fill:#ffffff;fill-opacity:1;fill-rule:evenodd;stroke:#ffffff;stroke-width:2.53196;stroke-dasharray:none;stroke-opacity:1"
       d="m -641.81908,-52.532592 c -3.03451,1.420857 -6.32179,1.998138 -8.95561,1.563331 -4.3718,-0.721718 -4.81751,-1.205617 -15.14338,-16.547288 -8.78283,-13.0491 -9.34029,-13.986036 -9.6442,-16.21608 -0.4319,-3.169224 0.30293,-5.733984 2.55286,-8.831794 1.6883,-2.324529 2.29201,-2.864118 6.28201,-5.526586 3.9809,-2.656391 4.75935,-3.032641 7.63472,-3.752221 6.192,-1.54959 9.86652,0.068 13.68034,5.944069 l 2.32089,3.575905 c -1.48482,0.96325 -2.9662,1.929937 -4.44447,2.899403 -1.47828,0.969469 -2.95346,1.941717 -4.42589,2.91609 -0.67588,-1.020824 -1.35177,-2.041648 -2.02766,-3.062472 -2.55231,-3.855249 -4.12383,-4.634338 -6.90696,-3.411145 -2.35621,1.035558 -3.6862,2.475224 -4.12716,4.457573 -0.32735,1.471687 -0.14761,1.781621 8.4036,14.545563 9.40092,14.032241 9.90355,14.58614 12.5056,13.861826 1.65994,-0.462059 3.74184,-1.839047 4.58477,-3.031617 1.16732,-1.651491 0.65352,-3.586567 -2.0306,-7.642428 l -2.50145,-3.779827 c 1.47052,-0.973214 2.94203,-1.943313 4.41488,-2.909624 1.47285,-0.966313 2.94704,-1.928837 4.42294,-2.8869 1.05968,1.744421 2.1197,3.488651 3.18003,5.23269 2.84497,4.679395 3.16952,5.43848 3.0768,7.197575 -0.16096,3.053705 -1.12294,5.606907 -2.97607,7.881331 -1.93983,2.380854 -6.78013,6.073026 -9.87596,7.522599 -1e-5,9e-6 -2e-5,1.8e-5 -3e-5,2.7e-5 z m 32.18981,-20.866081 c -4.25899,1.894591 -8.81773,2.001397 -12.13459,0.212512 -1.76272,-0.950699 -2.40746,-1.858137 -13.5885,-19.081047 -3.91308,-6.027585 -7.82731,-12.054482 -11.74268,-18.080682 1.60693,-1.02523 3.22053,-2.04703 4.84122,-3.06464 1.62069,-1.01761 3.24846,-2.03103 4.88372,-3.03949 3.48066,5.62931 6.96128,11.25863 10.44188,16.887961 6.54553,10.587158 10.88334,17.226515 11.62405,17.796375 3.56248,2.740727 9.75703,-1.407834 8.52786,-5.708069 -0.2629,-0.919717 -4.92662,-9.2205 -10.36454,-18.446057 -3.29577,-5.59121 -6.59129,-11.18256 -9.88657,-16.77406 1.58301,-0.93409 3.17352,-1.86228 4.77188,-2.7839 1.59836,-0.92162 3.20456,-1.83668 4.81896,-2.74453 l 10.32886,18.37179 c 9.85768,17.533694 10.33221,18.480217 10.49948,20.733509 0.36313,4.891279 -2.15375,8.933204 -7.74761,12.666833 -1.70654,1.139032 -4.11442,2.537879 -5.27339,3.053475 -10e-6,7e-6 -2e-5,1.3e-5 -3e-5,2e-5 z m 31.9982,-18.053265 c -0.57395,0.19249 -1.13791,0.354704 -1.69198,0.486593 0,0 0,0 0,0 -6.18808,1.496138 -11.25323,-0.79726 -14.70789,-7.109002 -0.31611,-0.577557 -0.63222,-1.155112 -0.94834,-1.732663 1.56194,-0.85031 3.12834,-1.6895 4.69957,-2.51684 1.35153,-0.71165 2.70664,-1.41453 4.06557,-2.10817 0.22103,-0.11242 0.44216,-0.22463 0.6634,-0.33661 0.54259,0.93325 1.08473,1.8668 1.6264,2.80065 1.50843,2.600569 1.74403,2.811231 3.29188,2.98373 1.86919,0.208307 4.38431,-0.820213 5.89042,-2.40075 1.97812,-2.07587 0.47407,-6.55864 -3.12897,-8.74227 -1.16417,-0.70555 -4.90355,-1.70367 -10.71505,-2.60106 -1.48857,-0.22986 -0.54549,-0.0841 -2.03407,-0.31396 -5.80826,-0.9001 -7.65219,-1.30543 -9.84863,-2.40239 -2.85992,-1.42832 -2.91522,-1.47311 -5.2245,-5.73093 -2.27248,-4.18999 -2.32721,-4.36844 -1.81085,-6.93378 0.58271,-2.89514 2.49762,-5.98474 5.02938,-8.09935 0,0 0,0 0,0 0.14011,-0.11772 0.28202,-0.23233 0.4256,-0.34363 1.07831,-0.83586 3.8565,-2.46225 6.34183,-3.67685 3.74029,-1.82791 5.01877,-2.22641 7.73202,-2.54505 1.80563,-0.21204 4.21238,-0.11749 5.40278,0.20236 2.86566,0.76999 5.80415,3.50681 7.0836,6.5052 l 1.0208,2.39224 c -1.67804,0.71545 -3.3483,1.44557 -5.01064,2.18952 -1.66233,0.74395 -3.31674,1.50173 -4.96307,2.27251 l -0.80338,-1.7195 c -1.42886,-3.05821 -4.44062,-4.16356 -7.49687,-2.66665 -5.0945,2.49522 -4.82523,7.1572 0.1057,9.87835 1.37613,0.75942 4.54135,1.4025 10.16469,2.33384 12.15188,2.01259 15.19149,4.16129 17.63703,9.85065 3.20269,7.45081 0.49268,13.355264 -7.41381,17.612823 -1.74334,0.938769 -4.21766,2.080293 -5.38259,2.47099 0,0 -3e-5,-10e-7 -3e-5,-10e-7 z m 63.88158,-22.521032 c -4.36715,0.0451 -8.53558,-1.59405 -10.90939,-4.50305 -1.20546,-1.47723 -1.58942,-2.78399 -5.33745,-18.58199 -3.93489,-16.58565 -4.02209,-17.04829 -3.23945,-18.9655 1.16471,-2.85314 3.84273,-5.59882 7.16658,-7.24048 4.23414,-2.09125 12.01693,-3.33298 16.94111,-2.71186 0.2026,0.0256 0.39905,0.0544 0.58877,0.0865 3.97435,0.67246 6.76145,2.09171 8.67803,4.30818 1.4346,1.65907 1.43499,1.72418 2.64443,19.75989 l 1.21297,18.08826 c -0.32948,0.62271 -0.65543,1.24601 -0.97787,1.86983 -1.12326,2.17313 -3.3536,4.40044 -5.39598,5.40714 -0.37412,0.18441 -0.77356,0.35944 -1.19356,0.52452 -2.83766,1.15269 -6.80113,1.92339 -10.17822,1.95835 z m 5.7,-8.84931 c 1.9561,-1.60193 1.98313,-2.74704 -0.12827,-18.79756 -1.91512,-14.55853 -2.01805,-15.01845 -3.31116,-15.88877 -0.7365,-0.4957 -2.02551,-0.95605 -2.88173,-1.02897 -2.29612,-0.19553 -5.43938,0.99732 -6.62747,2.49107 -0.96429,1.21239 -0.92368,1.71043 1.43509,15.58177 1.33527,7.85233 2.73221,15.0572 3.05455,15.89811 1.21237,3.16305 5.63986,4.05307 8.45899,1.74435 z m 85.32699,21.55846 c -2.96778,-2.77588 -4.55344,-6.65099 -4.05841,-10.51653 0.14024,-1.09467 0.86239,-3.31222 1.60061,-4.84836 l 1.35579,-2.8212 c 1.42234,0.67963 2.82961,1.3994 4.22165,2.15659 1.39205,0.75718 2.76886,1.55177 4.13029,2.38102 l -1.28911,2.1213 c -2.13536,3.51385 -1.66109,5.71289 1.3101,7.75 0.9483,0.65018 1.74924,0.85532 3.00294,0.77253 1.5978,-0.10552 1.84184,-0.25628 3.36021,-2.32155 1.20764,-1.6426 1.83151,-2.83111 1.76301,-4.82698 -0.0642,-1.87142 -0.81296,-4.9783 -2.69957,-9.80406 -1.84604,-4.722 -4.00716,-9.52695 -4.28716,-10.72004 -1.32083,-5.62802 0.91887,-12.12436 6.3442,-14.28965 1.81165,-0.72306 5.5735,-0.79067 8.48096,-0.0816 5.95302,1.45176 14.34736,7.47299 17.08216,12.06684 2.89838,4.86861 2.6077,8.72452 -0.43705,13.27583 -0.54577,0.81584 -1.0934,1.6302 -1.64286,2.44307 -1.48554,-1.31609 -3.00118,-2.60631 -4.54676,-3.86748 -1.54557,-1.26117 -3.12107,-2.49329 -4.72632,-3.69316 0.50601,-0.79606 1.01081,-1.59294 1.51439,-2.39064 1.9155,-3.03421 1.56993,-4.54984 -2.13766,-7.07449 -3.8455,-2.61855 -5.35218,-2.339 -7.28925,0.76737 -2.22769,3.57244 -1.35256,4.52066 2.11678,14.48197 2.07623,5.96138 2.75054,9.84342 2.50356,12.45495 -0.25859,2.73432 -1.50808,4.63618 -3.7986,7.27665 -2.58762,2.982999 -3.22637,3.49439 -5.02494,4.171712 -2.51007,0.94525 -5.64402,0.973786 -8.32157,0.181124 -2.21061,-0.65442 -6.72417,-3.358805 -8.52729,-5.045336 z m -131.87183,-24.25541 -7.39842,-20.36323 c -1.94163,0.70123 -3.87308,1.42342 -5.79414,2.16544 -1.92105,0.74203 -3.83171,1.50389 -5.73177,2.28447 l -1.43852,-3.49229 -1.43853,-3.49228 c 5.80987,-2.34848 11.72479,-4.52803 17.73891,-6.50906 6.01412,-1.98103 12.12745,-3.76354 18.33414,-5.31794 l 0.89174,3.4568 0.89174,3.4568 c -2.05776,0.56431 -4.10474,1.15498 -6.14076,1.7708 -2.03603,0.61581 -4.06112,1.25678 -6.07511,1.92168 l 6.47797,20.63043 6.47798,20.63044 c -1.56892,0.49881 -3.13656,1.0173 -4.70275,1.55448 -1.56619,0.53719 -3.13094,1.09307 -4.69406,1.66668 z m 65.03306,-16.66974 -0.73451,-25.51396 c 3.08647,-0.0944 6.18509,-0.11912 9.29181,-0.0711 7.05676,0.10908 9.33289,0.47983 9.30956,0.83663 -0.0288,0.43958 1.13014,5.02495 3.33784,24.79666 0.4847,4.34091 0.76488,8.30983 0.71041,8.87528 -0.20649,2.14351 0.76999,0.93518 1.64102,-1.94882 0.6771,-2.24188 1.82261,-6.01514 3.42425,-10.90593 1.65646,-5.05826 3.29506,-9.72252 4.73454,-13.6365 0.70967,-1.92962 1.43384,-3.85505 2.17265,-5.77607 3.07146,0.42249 6.14176,0.92367 9.20716,1.50662 3.06539,0.58295 6.12588,1.24768 9.17771,1.99727 l -6.2441,24.56977 -6.24411,24.56977 c -1.39706,-0.34875 -2.80664,-0.67173 -4.22766,-0.96978 -1.42102,-0.29805 -2.85348,-0.57116 -4.29628,-0.82016 1.05757,-5.95704 2.11331,-11.91447 3.16722,-17.87229 1.86312,-10.53265 2.8799,-17.45388 2.48785,-16.84818 -0.37752,0.58326 -1.3447,2.69357 -2.1714,4.77883 -1.10294,2.78209 -2.66354,6.7486 -4.58931,12.04084 -1.83328,5.03805 -3.34354,9.58161 -4.16479,12.16382 -0.66784,2.09986 -1.31821,4.04551 -1.45186,4.28216 -0.14669,0.25972 -2.2122,0.18769 -4.25071,0.0387 -2.03563,-0.14876 -4.05529,-0.3821 -4.03682,-0.6521 0.0125,-0.18255 -0.23199,-2.62504 -0.58179,-5.42799 -0.44455,-3.56222 -0.70784,-5.45147 -0.9918,-7.57266 -0.21652,-1.61744 -0.63162,-4.4894 -1.11757,-7.51624 -0.5732,-3.57037 -1.00249,-6.08562 -1.5351,-9.13911 -0.39639,-2.27254 -0.92386,-4.59879 -1.1741,-5.24674 -0.26124,-0.67642 -0.64951,6.2586 -0.93559,16.90137 -0.1617,6.01605 -0.32184,12.03217 -0.48043,18.04835 -1.44213,-0.031 -2.88878,-0.0439 -4.33902,-0.0394 -1.45024,0.004 -2.90406,0.0264 -4.36054,0.0649 -0.24484,-8.50465 -0.48969,-17.00931 -0.73453,-25.51397 z m 53.69219,7.01956 c 2.57969,-8.00557 5.16735,-16.0086 7.76299,-24.00907 2.13596,0.64051 4.26611,1.32483 6.38916,2.05407 2.12304,0.72925 4.23898,1.50341 6.34652,2.32359 l -9.73443,23.44135 -9.73443,23.44134 c -1.41931,-0.6062 -2.85868,-1.17748 -4.31666,-1.71494 -1.45798,-0.53746 -2.93456,-1.04109 -4.4283,-1.51201 2.56375,-8.01064 5.13546,-16.01876 7.71515,-24.02433 z m 48.59505,29.15897 17.50583,-18.39953 c 4.1859,3.991 8.09858,8.01499 11.80839,11.99542 3.7098,3.98042 7.21673,7.91728 10.59115,11.73402 l -2.8118,2.50333 -2.8118,2.503325 c -2.15438,-2.431773 -4.34733,-4.898305 -6.59711,-7.379725 -2.24978,-2.48142 -4.55639,-4.97773 -6.93809,-7.46905 l -4.76846,4.54509 -4.76845,4.5451 c 1.78482,1.870996 3.54004,3.76024 5.27444,5.65816 1.73439,1.897921 3.44797,3.804517 5.14953,5.710221 l -2.80862,2.509263 -2.80862,2.509263 c -1.6925,-1.893744 -3.38759,-3.779704 -5.09406,-5.648313 -1.70647,-1.86861 -3.42432,-3.719868 -5.16234,-5.544207 l -5.44352,5.18853 -5.44352,5.188535 c 2.04507,2.202422 4.08725,4.47414 6.14468,6.796641 2.05743,2.322501 4.13011,4.695784 6.2362,7.101333 -0.88042,0.850994 -1.76083,1.701966 -2.64122,2.552923 -0.88039,0.850959 -1.76075,1.701902 -2.64109,2.552834 -3.39769,-3.789801 -6.67256,-7.465394 -9.89524,-10.949943 -3.22269,-3.484551 -6.39318,-6.778059 -9.5821,-9.803689 z"
       id="path22045"
       class="UnoptimicedTransforms"
       inkscape:original-d="m -665.84657,-67.410318 c 24.31364,-16.363802 48.62675,-32.727992 72.94051,-49.093372 28.31184,-10.56387 56.6221,-21.12782 84.93276,-31.69257 31.55753,3.91705 63.11261,7.83328 94.67164,11.74949 15.64835,17.5769 31.29399,35.15054 46.94105,52.725534"
       inkscape:path-effect="#path-effect22047;#path-effect22068"
       sodipodi:nodetypes="ccccc"
       transform="matrix(1.6215055,-0.53405615,0.96557942,2.0869398,-173.71775,-445.55671)" /><path
       style="fill:#ffffff;fill-opacity:1;fill-rule:evenodd;stroke:#ffffff;stroke-width:2.33073;stroke-dasharray:none;stroke-opacity:1"
       d="m -578.00689,-90.737273 c -3.21762,0.755394 -6.6739,-0.228739 -9.09398,-2.604479 -1.22506,-1.202613 -1.80892,-2.343624 -8.26001,-16.157468 -6.7752,-14.50783 -6.94245,-14.90697 -6.95798,-16.6558 -0.023,-2.59018 0.88214,-5.20055 2.40315,-6.91613 1.06803,-1.20466 1.90904,-1.76532 4.34704,-2.88444 0.97977,-0.44975 1.8939,-0.79646 2.75756,-1.03937 3.16718,-0.89571 5.69273,-0.38062 8.3338,1.61912 0.66049,0.50011 1.32088,1.0007 1.98094,1.5019 l 6.95893,15.45084 6.95894,15.45084 c -3.9e-4,0.045 -0.0145,1.81042 -0.0149,1.85539 -0.0164,2.167496 -0.78917,4.605861 -1.90601,5.959884 -0.58526,0.709561 -1.35399,1.393785 -2.23903,2.011926 -1.54678,1.09544 -3.4376,1.977966 -5.26844,2.407787 z m 1.54153,-8.869961 c 0.15825,-0.320836 0.27636,-0.616796 0.3263,-0.966646 0,0 0,0 0,0 0.23639,-1.59438 -0.95525,-4.31152 -6.21931,-15.59023 -5.82299,-12.47625 -6.02761,-12.86335 -7.07004,-13.44754 0,0 -0.004,-0.002 -0.004,-0.002 0,0 0,0 0,0 -0.59482,-0.32904 -1.51368,-0.56088 -2.04513,-0.5158 -1.42486,0.12084 -2.9793,1.5314 -3.26918,2.96443 -0.23696,1.17139 -0.0664,1.60404 5.38771,13.63898 3.09696,6.83371 6.01937,13.0246 6.48794,13.74851 1.71627,2.651614 5.14075,2.734973 6.40565,0.170496 z m 21.77205,-1.507696 c -3.96067,0.62375 -7.43035,-1.11082 -10.10533,-5.33015 -0.71546,-1.12851 -4.22555,-8.75444 -8.64532,-18.80344 -1.9e-4,-4.3e-4 -7.42551,-16.88279 -7.4257,-16.88322 1.22437,-0.5365 2.46093,-1.0711 3.71021,-1.60223 1.24929,-0.53112 2.5113,-1.05876 3.78657,-1.58133 2.43179,5.89756 4.86358,11.79512 7.29535,17.69268 6.6771,16.19373 7.38199,17.76879 8.2873,18.61047 1.14553,1.065 2.57628,1.09117 4.08144,0.10844 1.97392,-1.28879 2.1545,-0.54768 -5.43312,-21.05829 -2.25481,-6.09496 -4.5066,-12.19103 -6.75536,-18.28821 1.26931,-0.4753 2.55166,-0.94316 3.8475,-1.40221 1.29584,-0.45904 2.60518,-0.90926 3.92848,-1.34926 2.02138,6.29776 4.04728,12.5939 6.07768,18.88843 5.40635,16.76047 6.10644,19.0904 6.16912,20.75243 0.0933,2.47335 -0.8761,5.35679 -2.30297,6.87842 -1.28282,1.36801 -4.51538,3.05245 -6.51598,3.36752 4e-5,-2e-5 8e-5,-4e-5 1.3e-4,-5e-5 z m 93.12978,-3.61297 c -2.09058,-1.43368 -3.41195,-4.21346 -3.40911,-7.53744 0.002,-1.88182 0.24162,-2.82291 4.70629,-17.69876 l 4.71648,-15.71482 c 0.63086,-0.61792 1.26866,-1.23145 1.91353,-1.84044 3.09772,-2.92538 6.90891,-3.41758 12.44537,-1.18521 2.42628,0.97831 4.06323,1.89359 5.28021,2.93463 0.8318,0.7102 1.50807,1.47323 2.11932,2.34973 2.59059,3.71474 2.1755,7.22053 -0.57739,11.79118 l -1.89648,3.14873 c -1.09314,-0.65924 -2.20839,-1.29655 -3.34696,-1.90907 -0.93475,-0.50287 -1.8852,-0.98904 -2.85204,-1.45693 -0.20125,-0.094 -0.40271,-0.18727 -0.60437,-0.27992 0.42614,-1.02419 0.85099,-2.0489 1.27453,-3.07414 1.39671,-3.38092 1.34413,-4.90221 -0.30727,-6.30328 -1.26316,-1.07167 -3.64907,-1.34511 -4.99947,-0.59364 -1.09647,0.61015 -1.29847,1.04267 -5.88132,13.0321 -2.58721,6.76854 -4.954,13.29752 -5.20524,14.26547 -0.83107,3.20188 0.4812,5.24083 2.98219,4.99398 1.52363,-0.15038 2.39441,-1.32882 4.71751,-6.59691 0.70181,-1.59149 1.40199,-3.18365 2.10054,-4.77647 -0.51115,-0.27494 -1.0254,-0.54502 -1.54263,-0.81032 -0.51722,-0.26531 -1.03742,-0.52583 -1.56048,-0.78168 l 1.27628,-3.07492 1.27628,-3.07492 c 1.41851,0.58813 2.82561,1.20851 4.21983,1.8627 0.27751,0.13209 0.55372,0.26608 0.82865,0.40192 1.68167,0.83087 3.31537,1.73092 4.90567,2.68924 l -4.80686,7.98085 c -4.35606,7.2324 -4.94698,8.09052 -6.27127,9.43753 -2.17271,2.20998 -4.17089,3.32415 -6.01075,3.61431 -0.84352,-0.002 -1.70617,-0.16074 -2.61206,-0.4719 -0.982,-0.33731 -2.33664,-0.94974 -2.87897,-1.32162 z m -143.80095,15.630432 c -1.39577,-2.949817 -2.79154,-5.899633 -4.18731,-8.849449 -0.849,-0.905774 -9.16706,-9.770693 -10.01606,-10.676473 -5.51061,-5.87071 -10.0355,-10.70985 -10.05647,-10.75359 -0.021,-0.0438 1.56306,-0.8382 3.52368,-1.76691 1.18826,-0.56285 2.37754,-1.12605 3.5679,-1.68944 -0.0118,-0.0129 0.8259,0.8961 0.81406,0.88325 0.44776,0.48584 2.92487,3.30214 5.50354,6.25967 2.57862,2.95748 4.88054,5.51893 5.11721,5.69083 0.25088,0.18222 -0.14864,-3.20187 -0.95152,-8.11791 -0.7574,-4.63759 -1.32072,-8.59582 -1.25843,-8.79389 0.0623,-0.19808 1.54353,-0.98337 3.29554,-1.7443 1.06173,-0.46113 2.12444,-0.92196 3.18819,-1.38238 0.57756,4.72826 1.16421,9.45375 1.75778,14.1772 0.59358,4.72344 1.19408,9.44484 1.79934,14.16492 1.43505,3.061301 2.87012,6.122594 4.30521,9.183879 1.43508,3.061286 2.87019,6.122564 4.30531,9.183834 -1.08555,0.511781 -2.17168,1.024438 -3.25844,1.537848 -1.08676,0.513409 -2.17415,1.027571 -3.26223,1.542362 -3e-5,-5.9e-5 -4.18727,-8.849393 -4.1873,-8.849451 z m 59.25713,-40.685142 -6.46918,-22.89848 c 2.3835,-0.66864 4.75724,-1.2721 7.11815,-1.81659 11.34824,-2.61722 14.48655,-1.61122 17.31504,2.09369 0.89729,1.17534 1.05458,1.84078 1.72422,7.078 0.70049,5.47842 0.69924,5.86595 0.0849,7.60569 -0.38554,1.09186 -1.13152,2.26651 -1.84759,2.91383 -0.75274,0.68048 -1.00903,1.12068 -0.70436,1.171 1.12849,0.18635 2.62384,1.24279 3.38827,2.38648 1.19638,1.78993 2.11507,5.76029 2.96996,12.58572 0.41346,3.30104 0.95136,6.52641 1.18348,7.12892 0.14271,0.37041 0.28488,0.74093 0.42652,1.11157 -1.13075,0.10789 -2.25154,0.22299 -3.36172,0.34688 -3.25393,0.3631 -3.29533,0.40321 -3.64504,-0.43773 -0.18701,-0.44969 -0.91095,-4.10017 -1.59514,-8.0639 -1.65878,-9.60974 -2.12704,-10.44932 -6.45146,-10.06348 -0.69494,0.062 -1.38944,0.12927 -2.08345,0.20209 l 2.18151,10.0412 2.18152,10.04122 c -1.01843,0.21785 -2.02367,0.44849 -3.01499,0.6934 -0.99132,0.24491 -1.96872,0.50408 -2.93148,0.77898 z m 11.02741,-6.55607 c 1.84843,-1.16476 2.1775,-2.96418 1.218,-7.42404 -1.02721,-4.77457 -1.93207,-5.56019 -6.18497,-4.69387 -0.75032,0.15284 -1.50146,0.31147 -2.25333,0.47613 l 1.42228,6.54655 1.42228,6.54657 c 0.51589,-0.11228 1.03223,-0.22158 1.54897,-0.32798 0.8425,-0.17349 2.13044,-0.6846 2.82677,-1.12338 z m 25.84543,1.0577 c -0.37116,-7.90299 -0.73842,-15.80611 -1.10179,-23.70936 2.66623,-0.12881 5.35611,-0.20411 8.06753,-0.21936 7.70287,-0.0434 8.52268,0.27837 10.3673,1.15815 2.61474,1.24706 4.08351,2.71415 4.99615,4.90308 0.62686,1.50351 0.62189,2.27319 0.0185,8.67586 -0.22063,2.34068 -0.44131,4.68135 -0.66204,7.02203 -0.40681,0.59575 -0.80852,1.19328 -1.20524,1.79254 -2.20922,3.33706 -4.40961,4.30115 -9.35129,4.43174 -1.20031,0.0317 -2.40081,0.0787 -3.60132,0.13999 l 0.0567,9.65298 0.0567,9.65298 c -1.07343,0.009 -2.15337,0.0322 -3.2395,0.0672 -1.08612,0.035 -2.17843,0.0823 -3.27658,0.14077 -0.37894,-7.90271 -0.754,-15.80556 -1.12516,-23.70854 3e-5,-1e-5 6e-5,-2e-5 9e-5,-3e-5 z m 13.429,-3.71245 c 0.92122,-0.85894 0.98371,-1.10307 1.25859,-4.97823 0.34792,-4.90461 0.18012,-6.28649 -0.9894,-7.43421 -0.75764,-0.74351 -1.27165,-0.89518 -3.59889,-0.92154 -0.90047,-0.0102 -1.79925,-0.0132 -2.69624,-0.009 l 0.0427,7.277 0.0427,7.27701 c 0.82779,-0.0644 1.65671,-0.12231 2.48671,-0.17346 2.10504,-0.12971 2.63135,-0.27036 3.45376,-1.03719 z m 5.8439,26.90786 c 0.11797,-0.42682 0.76234,-3.19319 1.47542,-6.14098 0.37846,-1.56455 0.77867,-3.17583 1.20193,-4.83065 1.76108,-6.74444 4.02595,-14.90358 6.84956,-23.97837 1.77228,-5.69589 3.34369,-10.41604 3.35777,-10.51509 0.0141,-0.0991 2.5792,0.16078 5.72362,0.71079 5.60521,0.98043 5.73391,1.12969 5.77216,1.93546 0.0234,0.4928 -0.057,4.34008 -0.26106,8.71791 -0.24484,5.25229 -0.61512,11.44446 -1.22643,18.39718 -0.60381,6.86738 -1.24426,12.20275 -1.64158,15.3857 -0.28805,2.30763 -0.58388,4.32432 -0.62864,4.4881 -0.0446,0.16309 -1.38457,-0.0531 -3.01289,-0.43583 -0.98797,-0.23221 -1.98645,-0.45241 -2.99461,-0.66151 0.108,-1.09056 0.21248,-2.18175 0.31349,-3.27356 0.17683,-1.91141 0.33056,-3.76622 0.39275,-4.60933 0.0328,-0.44415 0.0649,-0.88839 0.0965,-1.33273 -1.18976,-0.23843 -2.38795,-0.46164 -3.59349,-0.6708 -1.20554,-0.20916 -2.41843,-0.40427 -3.63757,-0.58651 -0.38098,1.34294 -0.75704,2.68678 -1.12825,4.03143 -0.60987,2.20917 -1.17756,4.23569 -1.26489,4.45868 -0.11825,0.30193 -0.99891,0.2926 -3.13185,0.0184 -0.51672,-0.0664 -0.92904,-0.11792 -1.28623,-0.16644 0,0 0,0 0,0 -1.54744,-0.20303 -1.5503,-0.30994 -1.37566,-0.94185 z m 15.97286,-13.87069 c 0.0107,-0.54263 0.30575,-5.38795 0.55141,-10.78075 0.24566,-5.39279 0.27113,-9.95722 0.15957,-10.13133 -0.11156,-0.17412 -0.6452,1.02572 -1.17498,2.66869 -0.64351,1.99569 -1.37831,4.32117 -2.12205,6.73906 -0.63488,2.06402 -1.60421,5.23165 -2.15694,7.03844 -1.48527,4.85506 -1.6008,4.32217 1.78642,4.91097 0.98205,0.17071 1.96082,0.35098 2.93582,0.54137 0.007,-0.32877 0.0142,-0.65758 0.0208,-0.98645 z m 37.23696,7.095 c 4.51314,-6.4614 9.03387,-12.91791 13.56214,-19.36954 3.63635,2.44449 6.98529,5.00218 10.07568,7.59872 3.0904,2.59654 5.92224,5.23192 8.52441,7.83178 -0.82832,0.7952 -1.65642,1.59078 -2.48429,2.38673 -0.82787,0.79595 -1.65551,1.59227 -2.48292,2.38898 -1.60367,-1.56348 -3.27711,-3.13174 -5.02699,-4.68665 -1.74987,-1.5549 -3.57618,-3.09645 -5.48559,-4.60652 l -3.92678,4.75961 -3.92679,4.75962 c 1.34416,1.10394 2.65689,2.23629 3.94193,3.38813 1.28504,1.15184 2.5424,2.32317 3.77582,3.50506 l -2.44022,2.5568 -2.44023,2.55679 c -1.1941,-1.13698 -2.39956,-2.2581 -3.62012,-3.35444 -1.22056,-1.09634 -2.45621,-2.1679 -3.71072,-3.20577 l -4.48848,5.44044 -4.48848,5.44044 c 1.33312,1.16485 2.67467,2.398712 4.03293,3.684129 1.35825,1.285418 2.73323,2.622394 4.13322,3.993484 -0.77904,0.841467 -1.55832,1.682563 -2.33785,2.523292 -0.77952,0.840728 -1.55929,1.681088 -2.33928,2.521084 -2.25491,-2.108399 -4.39154,-4.10567 -6.44163,-5.916359 -2.05009,-1.810689 -4.01364,-3.434796 -5.92238,-4.796868 4.49793,-6.471222 9.00348,-12.937532 13.51662,-19.398942 z"
       id="path22045-5"
       class="UnoptimicedTransforms"
       inkscape:original-d="m -619.43231,-97.860841 c 12.43786,-5.891089 24.87537,-11.782629 37.31264,-17.674669 11.15214,-4.90621 22.30398,-9.81289 33.45557,-14.72008 8.53477,-1.4503 17.06937,-2.9011 25.60347,-4.35235 11.75112,-0.80043 23.50177,-1.60132 35.25301,-2.40276 15.34852,3.76233 30.69092,7.52273 46.04272,11.28502 6.82102,6.67368 13.63876,13.34395 20.45622,20.01371"
       inkscape:path-effect="#path-effect22047-8;#path-effect22068-7"
       sodipodi:nodetypes="ccccccc"
       transform="matrix(1.6815727,-0.55383976,1.0988039,2.3748826,-52.587101,-289.238)" /><path
       id="path22347"
       style="fill:#ffffff;fill-opacity:1;stroke:none;stroke-opacity:1"
       d="m -439.73433,-615.84422 c -7.23371,0.2996 -20.39491,5.63881 -53.48633,19.39648 -24.74988,10.28973 -60.52508,25.14656 -79.5,33.01368 -18.97492,7.86708 -62.40012,25.87261 -96.5,40.01172 -34.09988,14.13907 -72.35004,29.99129 -85,35.22851 -12.64996,5.23726 -54.38514,12.70916 -72.61554,32.43389 13.81309,5.28776 12.42464,73.95452 10.9292,85.45037 -3.6512,28.06768 -3.43525,24.12349 -9.58739,50.78899 -2.2749,9.86017 -12.13259,25.84735 -24.33369,43.10214 -8.00952,11.3271 -32.8688,36.289 -47.19922,47.39258 -13.95244,10.81072 -35.04507,24.87111 -50.98437,33.98828 -54.11163,30.9514 -129.20593,56.36319 -184.70903,62.50391 -45.936,5.08224 -79.7658,-2.1782 -101.6139,-9.71746 -24.753,-8.54163 -61.2557,-38.4867 -94.8453,-85.8049 -9.0048,11.09235 -7.0929,-1.56888 -17.1976,37.47779 0.6821,26.12144 3.238,34.41324 5.1133,44.93715 5.1629,28.95979 25.6062,71.188214 48.0351,99.222652 51.8202,64.77019 122.5655,104.930644 202.5078,114.958984 17.5482,2.201312 64.1131,1.408694 82,-1.396484 80.85253,-12.679702 159.81147,-51.230194 212.39067,-103.697266 31.11172,-31.045416 52.08607,-64.549506 66.20898,-105.757816 11.85835,-34.6007 16.90708,-66.44047 18.33203,-115.60742 0.71042,-24.51281 1.03978,-28.20603 3.01758,-34 6.31586,-18.50243 21.29664,-34.02157 43.45312,-45.01367 12.72979,-6.31537 50.36556,-22.01876 219.49805,-91.58398 20.46411,-8.41705 23.09961,-11.00902 23.09961,-22.70508 0,-7.63594 -2.37603,-11.93092 -8.5293,-15.41602 -7.57416,-4.28985 -7.56611,-4.29188 -71.21875,21.82422 -176.68532,72.49245 -180.01342,73.92366 -194.51757,83.64648 -25.74027,17.25491 -43.78839,42.21658 -49.17188,68.00586 -0.77412,3.70839 -1.69231,15.74223 -2.03906,26.74219 -1.72926,54.85707 -7.44573,88.49811 -20.73438,122 -19.41274,48.941399 -51.08392,87.214697 -97.78906,118.175783 -43.05541,28.5416358 -97.66829,49.871511 -146.99614,57.412109 -17.3472,2.651862 -48.333,3.595776 -65.666,2 -29.6502,-2.729788 -60.977,-11.457798 -87.8379,-24.4726559 -27.0548,-13.1089576 -48.7791,-28.2620511 -70.2324,-48.9921871 -28.5678,-27.604712 -47.8567,-55.592974 -60.3379,-87.546879 -7.6262,-19.52424 -10.8087,-45.25421 -11.0233,-37.09764 35.8673,38.44352 61.7304,48.90038 61.7304,48.90038 14.8482,11.2696 35.1459,18.52529 59.1836,21.156248 15.8253,1.732152 50.6051,0.732854 68.1796,-1.958984 48.9651,-7.499704 102.3963,-23.878494 152.00004,-46.595704 86.83966,-39.77017 144.89689,-74.31556 163.58171,-126.49342 15.80296,-44.1302 10.47869,-29.2448 19.78881,-63.56074 9.60567,-35.40532 12.86551,-69.61063 0.73685,-103.146 0,0 32.90652,-15.41084 40.0856,-17.24421 13.50654,-3.44927 -65.72205,28.2449 57.80703,-23.02633 29.42488,-12.21292 62.50004,-25.93441 73.5,-30.49414 47.75554,-19.7958 109.69586,-45.4772 143.5,-59.4961 23.23826,-9.63711 37.5438,-16.11472 39.37305,-17.82812 7.88179,-7.38262 7.54357,-19.66642 -0.74219,-26.94141 -3.09804,-2.72011 -5.30432,-4.35554 -9.64453,-4.17578 z"
       sodipodi:nodetypes="csssscsssssssccccscsssssssssssssssssssccsssssssssssscc" /></g></svg>
