<?xml version="1.0" encoding="UTF-8" standalone="no"?>
<!-- Created with Inkscape (http://www.inkscape.org/) -->

<svg
   version="1.1"
   id="svg85"
   width="395.95834"
   height="397.06802"
   viewBox="0 0 395.95835 397.06802"
   sodipodi:docname="white_logo.svg"
   xml:space="preserve"
   inkscape:version="1.2.2 (b0a84865, 2022-12-01)"
   xmlns:inkscape="http://www.inkscape.org/namespaces/inkscape"
   xmlns:sodipodi="http://sodipodi.sourceforge.net/DTD/sodipodi-0.dtd"
   xmlns="http://www.w3.org/2000/svg"
   xmlns:svg="http://www.w3.org/2000/svg"><defs
     id="defs89"><inkscape:path-effect
       effect="spiro"
       id="path-effect263"
       is_visible="true"
       lpeversion="1" /><inkscape:path-effect
       effect="spiro"
       id="path-effect259"
       is_visible="true"
       lpeversion="1" /><clipPath
       clipPathUnits="userSpaceOnUse"
       id="clipPath2161"><rect
         style="fill:#070303;fill-opacity:0.689119;stroke-width:1.10702"
         id="rect2163"
         width="214.39882"
         height="616.08856"
         x="-995.599"
         y="-874.84576" /></clipPath><clipPath
       clipPathUnits="userSpaceOnUse"
       id="clipPath2161-5"><rect
         style="fill:#070303;fill-opacity:0.689119;stroke-width:1.10702"
         id="rect2163-2"
         width="214.39882"
         height="616.08856"
         x="-995.599"
         y="-874.84576" /></clipPath><clipPath
       clipPathUnits="userSpaceOnUse"
       id="clipPath2161-5-8"><rect
         style="fill:#070303;fill-opacity:0.689119;stroke-width:1.10702"
         id="rect2163-2-7"
         width="214.39882"
         height="616.08856"
         x="-995.599"
         y="-874.84576" /></clipPath><filter
       id="mask-powermask-path-effect4038_inverse"
       inkscape:label="filtermask-powermask-path-effect4038"
       style="color-interpolation-filters:sRGB"
       height="100"
       width="100"
       x="-50"
       y="-50"><feColorMatrix
         id="mask-powermask-path-effect4038_primitive1"
         values="1"
         type="saturate"
         result="fbSourceGraphic" /><feColorMatrix
         id="mask-powermask-path-effect4038_primitive2"
         values="-1 0 0 0 1 0 -1 0 0 1 0 0 -1 0 1 0 0 0 1 0 "
         in="fbSourceGraphic" /></filter></defs><sodipodi:namedview
     id="namedview87"
     pagecolor="#ffffff"
     bordercolor="#000000"
     borderopacity="0.25"
     inkscape:showpageshadow="2"
     inkscape:pageopacity="0.0"
     inkscape:pagecheckerboard="0"
     inkscape:deskcolor="#d1d1d1"
     showgrid="false"
     inkscape:zoom="1.3272805"
     inkscape:cx="187.97835"
     inkscape:cy="227.1562"
     inkscape:window-width="1440"
     inkscape:window-height="847"
     inkscape:window-x="0"
     inkscape:window-y="25"
     inkscape:window-maximized="0"
     inkscape:current-layer="g91" /><g
     inkscape:groupmode="layer"
     inkscape:label="Image"
     id="g91"
     transform="translate(-118.99176,-45.145633)"><path
       id="path486"
       style="fill:#ffffff;fill-opacity:1;stroke:none;stroke-width:0.665558;stroke-opacity:1"
       d="m 321.9082,45.537109 c -3.71479,-0.115898 -7.42664,-0.04223 -11.14062,0.06641 -5.53756,0.254953 -11.07029,0.665412 -16.57031,1.367187 -5.12796,0.620092 -10.22719,1.474105 -15.28907,2.5 -6.04965,1.222108 -12.0058,2.847427 -18.0039,4.292969 0.36067,-0.385429 -0.98385,0.242985 -1.33985,0.283203 -4.0609,1.20562 -8.07733,2.564124 -12.04492,4.046875 -4.11139,1.528785 -8.17398,3.190047 -12.17187,4.994141 -1.50115,0.73416 -3.09684,1.357197 -4.53907,2.160156 -0.40307,0.803991 -1.41657,0.926364 -2.11523,1.400391 -3.8865,1.94454 -7.70569,4.02274 -11.46094,6.208984 -3.38235,2.002172 -6.71243,4.084492 -9.98242,6.265625 -3.59802,2.422767 -7.13125,4.946006 -10.56641,7.595703 -2.58739,1.97419 -5.10585,4.040758 -7.59179,6.140625 -3.36474,2.870795 -6.63138,5.85542 -9.81055,8.929682 -2.82374,2.77015 -5.57255,5.61227 -8.24219,8.53125 -2.93222,3.23094 -5.76485,6.55116 -8.48047,9.9668 -2.02878,2.53815 -3.98386,5.13749 -5.88086,7.77539 -2.55422,3.55395 -4.98156,7.19902 -7.30664,10.90625 -2.04346,3.31277 -4.00424,6.67111 -5.86523,10.08984 -1.37684,2.49616 -2.61903,5.06546 -3.93945,7.5918 -0.86882,0.38186 -0.94423,1.4452 -1.39844,2.18359 -1.7829,3.76438 -3.42261,7.59632 -4.94531,11.47266 -1.58661,4.02485 -3.03257,8.10541 -4.35938,12.22266 -0.47745,1.5627 -0.95419,3.1248 -1.43164,4.6875 0.38042,-0.34753 -0.1878,1.00504 -0.20312,1.36718 -1.38089,5.67452 -2.89345,11.31961 -4.03711,17.04883 -1.16373,5.87091 -2.09488,11.78837 -2.73243,17.74024 -0.6523,6.02894 -1.033,12.08832 -1.11914,18.15234 -0.0566,3.09953 0.0524,6.20219 0.1875,9.29883 0.2719,5.99713 0.83784,11.97869 1.65235,17.92578 0.76835,5.50588 1.7633,10.97841 2.98242,16.40234 1.09825,4.70115 2.30774,9.37721 3.44922,14.06836 -0.36944,-0.33591 0.25067,0.99311 0.29101,1.34766 1.17835,3.97334 2.50715,7.90175 3.94727,11.78711 1.52227,4.09168 3.17402,8.13651 4.95703,12.12109 0.73431,1.58618 1.46881,3.17163 2.20313,4.75782 0.85838,0.39483 0.99458,1.43585 1.47851,2.16601 1.96164,3.91507 4.05189,7.76379 6.25977,11.54492 1.98399,3.35443 4.0545,6.65601 6.21679,9.89844 2.42286,3.59731 4.9432,7.12916 7.5918,10.56445 1.97356,2.58792 4.04281,5.10573 6.14258,7.5918 2.8708,3.36474 5.8554,6.63138 8.92969,9.81055 2.77027,2.82355 5.61103,5.5718 8.52929,8.24218 3.20704,2.90809 6.49997,5.72332 9.89063,8.41602 2.60863,2.08226 5.27382,4.09612 7.98633,6.04102 3.52695,2.53239 7.14218,4.94013 10.82422,7.24023 3.31286,2.04359 6.67281,4.00628 10.09179,5.86719 2.48099,1.36239 5.03011,2.59991 7.53906,3.91015 0.38183,0.86889 1.4451,0.9444 2.1836,1.39844 3.79533,1.79454 7.65768,3.44983 11.5664,4.98047 4.02383,1.58688 8.10472,3.02782 12.22266,4.34961 1.52954,0.46765 3.05835,0.9347 4.58789,1.40234 -0.32237,-0.36503 1.0142,0.19349 1.375,0.20899 5.67412,1.37793 11.31887,2.88909 17.04688,4.0332 12.52776,2.83798 24.18044,4.88008 37.78714,4.98047 11.14394,-0.37959 19.41298,-1.9056 29.11695,-3.35156 5.98819,-0.92239 11.9334,-2.11749 17.81836,-3.5586 5.78357,-1.42757 11.50618,-3.09596 17.14649,-5.01367 5.62258,-1.93665 11.16312,-4.10729 16.5957,-6.52734 1.90174,-0.83348 3.76472,-1.75382 5.65039,-2.62305 2.74603,-1.54386 5.66233,-2.86067 8.40039,-4.45508 5.09932,-2.78733 10.05132,-5.83903 14.88281,-9.0664 2.98235,-2.00597 5.89641,-4.09936 8.7461,-6.28516 5.23113,-3.90919 10.23635,-8.11628 15.05078,-12.52734 3.70748,-3.41873 7.2853,-6.97497 10.73047,-10.65821 4.48803,-4.83121 8.76181,-9.86501 12.75,-15.11718 2.25335,-2.98148 4.50141,-5.96605 6.57031,-9.08008 2.86642,-4.20492 5.53841,-8.54166 8.07422,-12.95313 2.03975,-3.56241 3.91981,-7.20941 5.78125,-10.86718 0.93645,-1.78384 1.7674,-3.67587 2.61914,-5.52149 2.26602,-5.09706 4.33001,-10.28172 6.17773,-15.54492 1.97896,-5.69119 3.70111,-11.47024 5.17579,-17.3125 1.46164,-5.83949 2.6796,-11.73865 3.63867,-17.68164 0.91713,-5.87859 1.59035,-11.79404 1.99414,-17.73047 0.38881,-5.95113 0.53208,-11.92029 0.375,-17.88281 -0.13387,-5.01211 -0.44351,-10.02044 -0.96094,-15.00782 -0.60121,-5.94248 -1.48734,-11.85517 -2.62109,-17.71875 -1.19026,-6.14451 -2.78492,-12.19964 -4.20508,-18.29296 0.18661,0.0322 -0.30802,-1.08798 -0.38867,-1.50782 -1.16184,-3.88818 -2.48515,-7.726 -3.89258,-11.53125 -1.36661,-3.66031 -2.85941,-7.26999 -4.41992,-10.85156 -0.94537,-2.15653 -1.98542,-4.2706 -2.96875,-6.41016 -0.8385,-0.39653 -0.96929,-1.42708 -1.44922,-2.14453 -1.95261,-3.90047 -4.03698,-7.73255 -6.23438,-11.5 -1.98573,-3.35389 -4.04653,-6.6606 -6.21094,-9.90234 -2.43104,-3.61433 -4.96676,-7.16138 -7.62695,-10.61133 -1.99681,-2.61315 -4.07937,-5.16254 -6.20703,-7.66992 -2.87056,-3.36551 -5.85737,-6.63068 -8.93555,-9.80664 -2.76847,-2.82545 -5.61592,-5.56881 -8.5332,-8.240233 -3.23503,-2.92775 -6.55679,-5.759192 -9.97266,-8.474609 -2.54335,-2.025042 -5.1401,-3.98786 -7.7832,-5.880859 -3.54389,-2.544803 -7.17474,-4.964834 -10.875,-7.275391 -3.31282,-2.043708 -6.67439,-4.006903 -10.09375,-5.867187 -2.48162,-1.362441 -5.02954,-2.599694 -7.53906,-3.910157 -0.35888,-0.82847 -1.37297,-0.897383 -2.07031,-1.333984 -3.80947,-1.825779 -7.6934,-3.496772 -11.61524,-5.064453 -3.98295,-1.591658 -8.02617,-3.026521 -12.09765,-4.373047 l -4.98047,-1.537109 c 0.0442,0.211762 -1.1063,-0.230603 -1.53321,-0.277344 -5.62288,-1.322071 -11.21539,-2.776445 -16.89062,-3.863282 -5.84613,-1.114367 -11.73746,-1.999851 -17.66016,-2.591796 -4.94576,-0.50217 -9.91133,-0.813828 -14.88086,-0.941407 z m 5.5586,21.595703 c 0.722,0.06055 1.44401,0.121094 2.16601,0.181641 3.86373,0.292947 7.72206,0.647909 11.56446,1.152344 4.17867,0.557389 8.33354,1.269467 12.46679,2.099609 4.09404,0.857498 8.15897,1.848455 12.19141,2.960938 3.99046,1.136503 7.9414,2.402406 11.85351,3.785156 3.90241,1.413266 7.75595,2.956967 11.5625,4.611328 0.52555,0.264208 1.24464,0.323254 1.3711,1.007813 3.34552,6.725877 6.38149,13.604821 9.10547,20.605469 2.53186,6.47648 4.75167,13.06808 6.86523,19.69141 0.0405,0.46189 0.70763,1.47629 0.32422,1.56445 -5.97367,-1.16797 -11.9665,-2.23188 -17.97461,-3.20703 l 0.0254,20.92578 c 7.48865,1.20956 14.94974,2.58701 22.35742,4.22266 0.53903,0.17218 1.27212,0.15005 1.68164,0.45117 1.91225,8.6915 3.60721,17.43193 4.96094,26.22851 2.20792,14.16714 3.66349,28.44816 4.48242,42.76172 0.30497,5.48013 0.47815,10.96533 0.64453,16.45117 h -34.00781 l 0.0274,21 h 33.98046 c -0.25389,9.39381 -0.67113,18.78519 -1.46093,28.15039 -1.16134,14.22524 -3.00887,28.39669 -5.59571,42.4336 -0.92124,5.0042 -1.97918,9.98152 -3.05273,14.95508 -7.87458,1.73126 -15.79363,3.2568 -23.75391,4.53906 l 0.0273,20.93554 c 4.77899,-0.77262 9.54914,-1.59993 14.29882,-2.5371 1.1856,-0.22579 2.37103,-0.45201 3.55665,-0.67774 l -1.04688,3.2168 c -2.94439,9.27793 -6.27952,18.43752 -10.16797,27.36328 -1.73129,4.00463 -3.61798,7.93799 -5.54101,11.85352 -3.73152,1.59704 -7.47011,3.17609 -11.28321,4.57031 -4.37053,1.60751 -8.80811,3.0285 -13.28515,4.30859 -4.09683,1.12675 -8.22498,2.13811 -12.38672,2.99414 -4.23185,0.84438 -8.48843,1.57434 -12.76953,2.11719 -1.68544,0.22858 -3.38416,0.32533 -5.07618,0.48828 -0.37684,-27.06739 -0.67305,-60.85332 -0.65234,-75.70117 0.0458,-32.79689 -0.68319,-31.03494 19.60742,-47.39258 7.13967,-5.75576 14.36444,-12.69677 16.05469,-15.42383 6.13624,-9.90016 6.26281,-12.13111 4.05469,-71.53125 -3.37441,-90.77441 -3.08599,-86.46714 -5.94336,-88.52734 -3.05475,-2.20253 -6.42149,-1.40628 -8.00391,1.89062 -0.6463,1.34657 -2.90292,27.95369 -5.01367,59.12696 -2.11071,31.17328 -4.17171,58.25615 -4.58008,60.18359 -0.70059,3.3068 -3.65672,4.70188 -5.34375,2.52149 -0.4045,-0.5228 -1.99518,-27.88055 -3.53515,-60.79297 -2.88061,-61.56392 -3.30355,-64.70475 -8.69532,-64.75 -5.38295,-0.0452 -5.8774,3.07997 -10.23242,64.51171 -2.84908,40.18911 -4.75804,60.10418 -5.83984,60.92969 -4.34164,3.31306 -4.90419,-1.2589 -7.44727,-60.5625 -1.54542,-36.03891 -3.13545,-60.21247 -4.06836,-61.85742 -2.03706,-3.59187 -5.68442,-4.01453 -8.27734,-0.95898 -1.67892,1.97844 -2.97872,14.55671 -6.4375,62.30078 -2.61691,36.12309 -4.91009,60.26045 -5.78711,60.92969 -3.92827,2.99761 -4.6253,-2.32442 -7.02539,-53.58985 -3.10482,-66.31787 -3.3227,-69.04182 -5.67773,-70.91797 -2.24545,-1.78882 -7.14801,-0.96463 -8.35157,1.4043 -0.44723,0.88028 -2.86875,33.63569 -5.38086,72.79102 -4.24639,66.18736 -4.41916,71.66391 -2.45898,77.9082 2.81402,8.96431 5.87568,12.70831 19.90039,24.3418 18.94661,15.71618 18.48008,14.48909 17.63867,46.58203 -0.38674,14.75167 -1.62762,48.6908 -2.76172,75.6289 -3.68522,-0.53922 -7.36026,-1.15284 -11.00781,-1.90625 -1.42733,-0.30666 -2.82404,-0.73744 -4.24414,-1.07617 -3.12965,-0.74649 -6.26684,-1.46314 -9.35352,-2.37109 -4.14495,-1.24915 -8.25942,-2.60595 -12.30468,-4.14844 -3.70715,-1.38218 -7.33582,-2.95587 -10.96289,-4.5332 -3.24055,-6.59969 -6.23346,-13.32263 -8.87891,-20.1836 -2.65714,-6.7544 -4.9483,-13.64268 -7.14453,-20.55859 -0.0342,-0.45591 -0.84713,-1.60023 0.0664,-1.21875 0.94177,0.18026 1.8844,0.36076 2.82618,0.54101 4.64834,0.92123 9.31117,1.7692 13.98632,2.54102 0.0384,-6.81536 0.0571,-13.94532 0.0801,-21.0625 -2.85857,-0.47145 -5.73376,-0.84235 -8.58203,-1.37305 -4.91819,-0.92282 -9.81066,-1.97116 -14.69922,-3.03906 -1.95759,-8.76666 -3.67602,-17.58703 -5.06054,-26.46289 -2.53071,-16.13204 -4.11487,-32.40868 -4.8418,-48.7207 -0.15104,-3.39311 -0.23464,-6.78949 -0.36328,-10.1836 h 2.07031 31.42383 c -0.021,-7.00452 -0.0201,-14.19682 -0.0469,-21 H 210.8379 c 0.27422,-9.48546 0.71655,-18.96881 1.53906,-28.42383 1.26553,-14.94285 3.27737,-29.82555 6.13282,-44.54882 0.78462,-4.14708 1.6983,-8.26805 2.59179,-12.39258 7.52352,-1.68077 15.09556,-3.13519 22.69922,-4.4043 -0.0928,-12.60123 -0.11958,-15.56934 -0.16601,-20.95117 -0.20181,0.0336 -0.40567,0.054 -0.60743,0.0879 -5.36277,0.88174 -10.6905,1.95335 -16.02929,2.9668 2.10113,-6.54887 4.20522,-13.09985 6.66406,-19.52539 2.81682,-7.460431 5.98453,-14.787215 9.50391,-21.943362 0.16389,-0.820048 1.08918,-0.845748 1.70312,-1.197266 3.89921,-1.722495 7.84815,-3.335135 11.85742,-4.783203 4.04317,-1.451858 8.12864,-2.786035 12.26758,-3.9375 4.96907,-1.401121 9.99766,-2.587904 15.07227,-3.539063 4.21822,-0.81234 8.4733,-1.436226 12.74023,-1.93164 3.21133,-0.386587 6.4408,-0.595135 9.66016,-0.90625 v 2.185546 40.101568 l 21,-0.16993 z m 92.01758,31.808594 c 1.82288,1.461584 3.64586,2.923174 5.46874,4.384764 3.01927,2.3915 6.01392,4.813 8.89454,7.3711 3.02479,2.67231 5.96548,5.44103 8.79101,8.32421 2.33484,2.33565 4.57719,4.76761 6.76758,7.23829 2.60218,2.92426 5.05423,5.97322 7.48633,9.03906 1.41859,1.7696 2.83727,3.53899 4.25586,5.30859 -7.72046,-2.7166 -15.4145,-5.52096 -23.25977,-7.86328 -2.70721,-0.83007 -5.43638,-1.58576 -8.15234,-2.38672 -2.31115,-8.15431 -4.83042,-16.25175 -7.71485,-24.22265 -0.84545,-2.39794 -1.69172,-4.7954 -2.5371,-7.193364 z M 214.7168,99.070312 c -0.78451,2.208988 -1.56901,4.417968 -2.35352,6.626958 -2.87598,7.89415 -5.43728,15.89936 -7.73437,23.98046 -0.0315,0.75224 -0.50778,1.06007 -1.21094,1.14063 -8.08108,2.29619 -16.0821,4.86643 -23.97656,7.74023 -2.17757,0.77271 -4.35564,1.54566 -6.53321,2.31836 3.1104,-3.83213 6.12558,-7.7439 9.29688,-11.52539 2.41727,-2.88021 4.95719,-5.65041 7.53515,-8.38672 2.80659,-2.87639 5.66897,-5.69634 8.64844,-8.39453 2.92863,-2.65132 5.93253,-5.22275 9.04102,-7.66211 2.42879,-1.94568 4.85828,-3.89222 7.28711,-5.837888 z m 220.54882,53.888668 c 1.07227,0.34896 2.14454,0.69792 3.2168,1.04688 9.21424,2.92289 18.3111,6.232 27.17774,10.08789 4.06997,1.74962 8.0624,3.6702 12.03906,5.62109 1.59723,3.7308 3.17714,7.46841 4.57031,11.28125 1.60761,4.37117 3.02832,8.80949 4.30859,13.28711 1.12745,4.09666 2.13821,8.22494 2.99415,12.38672 0.84366,4.23204 1.57543,8.48817 2.11718,12.76953 0.59217,4.3788 0.89675,8.78655 1.26953,13.1875 h -48.89062 c -0.25019,-9.53112 -0.69783,-19.05897 -1.5,-28.56054 -1.33151,-15.9568 -3.52519,-31.84272 -6.625,-47.55274 -0.22569,-1.18497 -0.45212,-2.3697 -0.67774,-3.55469 z m -236.46484,0.19922 c -0.21159,1.10677 -0.42318,2.21354 -0.63476,3.32032 -1.85146,9.33418 -3.41013,18.72546 -4.63868,28.1621 -1.00786,7.75591 -1.79515,15.53955 -2.41406,23.33594 -0.0545,0.85331 -0.13639,1.99471 -0.20117,2.95899 -0.30852,4.04993 -0.49277,8.10811 -0.70117,12.16406 -0.0334,0.88871 -0.0721,2.06505 -0.10742,3.06445 -0.0744,2.15413 -0.14877,4.30878 -0.22266,6.46289 h -48.84375 c 0.39636,-4.45961 0.74149,-8.92423 1.36719,-13.35937 0.5707,-4.25752 1.32275,-8.48859 2.1914,-12.69531 0.97508,-4.57396 2.12442,-9.11106 3.4375,-13.59961 1.22539,-4.08286 2.56343,-8.13269 4.06836,-12.1211 1.36595,-3.66052 2.90179,-7.2511 4.4668,-10.83008 0.19304,-0.72174 1.11953,-0.73827 1.66211,-1.125 9.9595,-4.88016 20.27867,-9.00239 30.78125,-12.55664 3.25377,-1.08703 6.5284,-2.11505 9.78906,-3.18164 z m -57.76367,100.46875 h 2.18555 46.6582 c 0.10943,3.18622 0.22007,6.3724 0.33008,9.5586 0.0496,0.88801 0.10581,2.06384 0.1582,3.0625 0.17503,4.02452 0.47405,8.04194 0.74805,12.06054 0.0699,0.85213 0.16887,1.99205 0.25,2.95508 0.99575,12.05443 2.49027,24.07087 4.50195,35.99805 0.87099,5.29762 1.93203,10.55978 2.93164,15.83398 -6.54926,-2.10173 -13.10162,-4.20589 -19.52734,-6.66601 -7.49102,-2.83097 -14.84571,-6.01532 -22.03321,-9.54688 -0.78666,-0.19581 -0.7738,-1.15832 -1.14648,-1.75195 -1.7222,-3.89926 -3.33355,-7.84861 -4.77734,-11.85938 -1.44195,-4.01114 -2.75798,-8.06781 -3.90235,-12.17382 -1.40112,-4.96907 -2.5879,-9.99766 -3.53906,-15.07227 -0.81234,-4.21825 -1.43622,-8.47333 -1.93164,-12.74023 -0.38651,-3.21069 -0.59524,-6.43949 -0.90625,-9.65821 z m 303.03125,0 h 1.9375 46.95312 c -0.3744,4.44968 -0.68708,8.90522 -1.2871,13.33203 -0.54575,4.24738 -1.27056,8.47103 -2.11133,12.66993 -0.85305,4.12886 -1.85285,8.22624 -2.97266,12.29101 -1.27615,4.47808 -2.69724,8.91334 -4.30078,13.28516 -1.40033,3.83029 -2.98478,7.58795 -4.58984,11.33594 -6.60828,3.27988 -13.33911,6.31403 -20.21289,8.99609 -6.77223,2.68912 -13.67968,5.02011 -20.61915,7.23633 -0.46102,0.0401 -1.47517,0.70838 -1.5625,0.32422 1.70645,-8.75498 3.31254,-17.53122 4.51758,-26.3711 2.37815,-16.81307 3.7213,-33.76759 4.17383,-50.74023 0.0254,-0.78625 0.0494,-1.5731 0.0742,-2.35938 z m -271.15625,91.75391 c 2.20703,0.78255 4.41409,1.5651 6.62109,2.34766 5.84731,2.12029 11.75012,4.08356 17.69922,5.89843 0.71849,0.2055 1.72839,0.50457 2.5586,0.7461 1.5294,0.44781 3.05894,0.89427 4.58789,1.34375 2.31984,8.15226 4.86191,16.2433 7.76171,24.20898 0.85932,2.42075 1.71872,4.84101 2.57813,7.26172 -3.85838,-3.13306 -7.79984,-6.16642 -11.60352,-9.36523 -3.12454,-2.63243 -6.14135,-5.38737 -9.08203,-8.22266 -2.65909,-2.61079 -5.25388,-5.28449 -7.75976,-8.04297 -2.71402,-3.00781 -5.34266,-6.09562 -7.8418,-9.28516 -1.84,-2.2969 -3.67937,-4.59382 -5.51953,-6.89062 z m 288.23633,0.26953 c -1.46029,1.82096 -2.92058,3.64193 -4.38086,5.46289 -2.3914,3.01935 -4.814,6.01276 -7.37305,8.89258 -2.69452,3.05036 -5.48792,6.01536 -8.39453,8.86523 -2.31369,2.30961 -4.722,4.52709 -7.16797,6.69532 -2.92412,2.60078 -5.97,5.05502 -9.03515,7.48632 -1.77025,1.41923 -3.5403,2.83858 -5.31055,4.25782 2.69283,-7.65861 5.4776,-15.28907 7.80273,-23.07032 0.85509,-2.76947 1.62658,-5.56391 2.44727,-8.34375 8.08975,-2.29302 16.12367,-4.79157 24.0332,-7.64843 2.4598,-0.86604 4.91898,-1.73196 7.37891,-2.59766 z"
       sodipodi:nodetypes="ccccccccccccccccccccccccccccccccccccccccccccccccccccccccccccccccccccccccccccccccccccccccccccccccccccccccccccccccccccccccccccccccccccccccccccsssssssssssssssssssssssssccscccccccccccccccccccccccccccccccccccccccccccccccccccccccccccccccccccccccccccccccccccccccccccccccccccccccccccccccccccccccscccccccccccccccccccccccc" /><circle
       id="path1371"
       style="fill:#000000;stroke:#000000"
       cx="769.66223"
       cy="154.99545"
       r="0.85865939" /></g></svg>
